<?xml version="1.0" encoding="utf-8"?>
<svg xmlns="http://www.w3.org/2000/svg" xmlns:xlink="http://www.w3.org/1999/xlink" width="600" height="400" viewBox="0 0 2400 1600">
<defs>
  <clipPath id="clip070">
    <rect x="0" y="0" width="2400" height="1600"/>
  </clipPath>
</defs>
<path clip-path="url(#clip070)" d="M0 1600 L2400 1600 L2400 0 L0 0  Z" fill="#ffffff" fill-rule="evenodd" fill-opacity="1"/>
<defs>
  <clipPath id="clip071">
    <rect x="480" y="0" width="1681" height="1600"/>
  </clipPath>
</defs>
<path clip-path="url(#clip070)" d="M195.324 1431.82 L2352.76 1431.82 L2352.76 114.832 L195.324 114.832  Z" fill="#ffffff" fill-rule="evenodd" fill-opacity="1"/>
<defs>
  <clipPath id="clip072">
    <rect x="195" y="114" width="2158" height="1318"/>
  </clipPath>
</defs>
<polyline clip-path="url(#clip072)" style="stroke:#000000; stroke-linecap:round; stroke-linejoin:round; stroke-width:2; stroke-opacity:0.1; fill:none" points="256.383,1431.82 256.383,114.832 "/>
<polyline clip-path="url(#clip072)" style="stroke:#000000; stroke-linecap:round; stroke-linejoin:round; stroke-width:2; stroke-opacity:0.1; fill:none" points="592.709,1431.82 592.709,114.832 "/>
<polyline clip-path="url(#clip072)" style="stroke:#000000; stroke-linecap:round; stroke-linejoin:round; stroke-width:2; stroke-opacity:0.1; fill:none" points="929.036,1431.82 929.036,114.832 "/>
<polyline clip-path="url(#clip072)" style="stroke:#000000; stroke-linecap:round; stroke-linejoin:round; stroke-width:2; stroke-opacity:0.1; fill:none" points="1265.36,1431.82 1265.36,114.832 "/>
<polyline clip-path="url(#clip072)" style="stroke:#000000; stroke-linecap:round; stroke-linejoin:round; stroke-width:2; stroke-opacity:0.1; fill:none" points="1601.69,1431.82 1601.69,114.832 "/>
<polyline clip-path="url(#clip072)" style="stroke:#000000; stroke-linecap:round; stroke-linejoin:round; stroke-width:2; stroke-opacity:0.1; fill:none" points="1938.01,1431.82 1938.01,114.832 "/>
<polyline clip-path="url(#clip072)" style="stroke:#000000; stroke-linecap:round; stroke-linejoin:round; stroke-width:2; stroke-opacity:0.1; fill:none" points="2274.34,1431.82 2274.34,114.832 "/>
<polyline clip-path="url(#clip072)" style="stroke:#000000; stroke-linecap:round; stroke-linejoin:round; stroke-width:2; stroke-opacity:0.1; fill:none" points="195.324,1315.39 2352.76,1315.39 "/>
<polyline clip-path="url(#clip072)" style="stroke:#000000; stroke-linecap:round; stroke-linejoin:round; stroke-width:2; stroke-opacity:0.1; fill:none" points="195.324,919.475 2352.76,919.475 "/>
<polyline clip-path="url(#clip072)" style="stroke:#000000; stroke-linecap:round; stroke-linejoin:round; stroke-width:2; stroke-opacity:0.1; fill:none" points="195.324,523.559 2352.76,523.559 "/>
<polyline clip-path="url(#clip072)" style="stroke:#000000; stroke-linecap:round; stroke-linejoin:round; stroke-width:2; stroke-opacity:0.1; fill:none" points="195.324,127.643 2352.76,127.643 "/>
<polyline clip-path="url(#clip070)" style="stroke:#000000; stroke-linecap:round; stroke-linejoin:round; stroke-width:4; stroke-opacity:1; fill:none" points="195.324,1431.82 2352.76,1431.82 "/>
<polyline clip-path="url(#clip070)" style="stroke:#000000; stroke-linecap:round; stroke-linejoin:round; stroke-width:4; stroke-opacity:1; fill:none" points="256.383,1431.82 256.383,1412.92 "/>
<polyline clip-path="url(#clip070)" style="stroke:#000000; stroke-linecap:round; stroke-linejoin:round; stroke-width:4; stroke-opacity:1; fill:none" points="592.709,1431.82 592.709,1412.92 "/>
<polyline clip-path="url(#clip070)" style="stroke:#000000; stroke-linecap:round; stroke-linejoin:round; stroke-width:4; stroke-opacity:1; fill:none" points="929.036,1431.82 929.036,1412.92 "/>
<polyline clip-path="url(#clip070)" style="stroke:#000000; stroke-linecap:round; stroke-linejoin:round; stroke-width:4; stroke-opacity:1; fill:none" points="1265.36,1431.82 1265.36,1412.92 "/>
<polyline clip-path="url(#clip070)" style="stroke:#000000; stroke-linecap:round; stroke-linejoin:round; stroke-width:4; stroke-opacity:1; fill:none" points="1601.69,1431.82 1601.69,1412.92 "/>
<polyline clip-path="url(#clip070)" style="stroke:#000000; stroke-linecap:round; stroke-linejoin:round; stroke-width:4; stroke-opacity:1; fill:none" points="1938.01,1431.82 1938.01,1412.92 "/>
<polyline clip-path="url(#clip070)" style="stroke:#000000; stroke-linecap:round; stroke-linejoin:round; stroke-width:4; stroke-opacity:1; fill:none" points="2274.34,1431.82 2274.34,1412.92 "/>
<path clip-path="url(#clip070)" d="M256.383 1462.74 Q252.772 1462.74 250.943 1466.3 Q249.138 1469.84 249.138 1476.97 Q249.138 1484.08 250.943 1487.65 Q252.772 1491.19 256.383 1491.19 Q260.017 1491.19 261.823 1487.65 Q263.651 1484.08 263.651 1476.97 Q263.651 1469.84 261.823 1466.3 Q260.017 1462.74 256.383 1462.74 M256.383 1459.03 Q262.193 1459.03 265.249 1463.64 Q268.327 1468.22 268.327 1476.97 Q268.327 1485.7 265.249 1490.31 Q262.193 1494.89 256.383 1494.89 Q250.573 1494.89 247.494 1490.31 Q244.439 1485.7 244.439 1476.97 Q244.439 1468.22 247.494 1463.64 Q250.573 1459.03 256.383 1459.03 Z" fill="#000000" fill-rule="nonzero" fill-opacity="1" /><path clip-path="url(#clip070)" d="M567.397 1490.28 L575.036 1490.28 L575.036 1463.92 L566.726 1465.59 L566.726 1461.33 L574.99 1459.66 L579.665 1459.66 L579.665 1490.28 L587.304 1490.28 L587.304 1494.22 L567.397 1494.22 L567.397 1490.28 Z" fill="#000000" fill-rule="nonzero" fill-opacity="1" /><path clip-path="url(#clip070)" d="M606.749 1462.74 Q603.138 1462.74 601.309 1466.3 Q599.503 1469.84 599.503 1476.97 Q599.503 1484.08 601.309 1487.65 Q603.138 1491.19 606.749 1491.19 Q610.383 1491.19 612.188 1487.65 Q614.017 1484.08 614.017 1476.97 Q614.017 1469.84 612.188 1466.3 Q610.383 1462.74 606.749 1462.74 M606.749 1459.03 Q612.559 1459.03 615.614 1463.64 Q618.693 1468.22 618.693 1476.97 Q618.693 1485.7 615.614 1490.31 Q612.559 1494.89 606.749 1494.89 Q600.938 1494.89 597.86 1490.31 Q594.804 1485.7 594.804 1476.97 Q594.804 1468.22 597.86 1463.64 Q600.938 1459.03 606.749 1459.03 Z" fill="#000000" fill-rule="nonzero" fill-opacity="1" /><path clip-path="url(#clip070)" d="M907.809 1490.28 L924.128 1490.28 L924.128 1494.22 L902.184 1494.22 L902.184 1490.28 Q904.846 1487.53 909.429 1482.9 Q914.036 1478.25 915.216 1476.91 Q917.462 1474.38 918.341 1472.65 Q919.244 1470.89 919.244 1469.2 Q919.244 1466.44 917.3 1464.71 Q915.378 1462.97 912.276 1462.97 Q910.077 1462.97 907.624 1463.73 Q905.193 1464.5 902.415 1466.05 L902.415 1461.33 Q905.24 1460.19 907.693 1459.61 Q910.147 1459.03 912.184 1459.03 Q917.554 1459.03 920.749 1461.72 Q923.943 1464.41 923.943 1468.9 Q923.943 1471.03 923.133 1472.95 Q922.346 1474.84 920.239 1477.44 Q919.661 1478.11 916.559 1481.33 Q913.457 1484.52 907.809 1490.28 Z" fill="#000000" fill-rule="nonzero" fill-opacity="1" /><path clip-path="url(#clip070)" d="M943.943 1462.74 Q940.332 1462.74 938.503 1466.3 Q936.698 1469.84 936.698 1476.97 Q936.698 1484.08 938.503 1487.65 Q940.332 1491.19 943.943 1491.19 Q947.577 1491.19 949.383 1487.65 Q951.211 1484.08 951.211 1476.97 Q951.211 1469.84 949.383 1466.3 Q947.577 1462.74 943.943 1462.74 M943.943 1459.03 Q949.753 1459.03 952.809 1463.64 Q955.887 1468.22 955.887 1476.97 Q955.887 1485.7 952.809 1490.31 Q949.753 1494.89 943.943 1494.89 Q938.133 1494.89 935.054 1490.31 Q931.999 1485.7 931.999 1476.97 Q931.999 1468.22 935.054 1463.64 Q938.133 1459.03 943.943 1459.03 Z" fill="#000000" fill-rule="nonzero" fill-opacity="1" /><path clip-path="url(#clip070)" d="M1254.2 1475.59 Q1257.56 1476.3 1259.44 1478.57 Q1261.33 1480.84 1261.33 1484.17 Q1261.33 1489.29 1257.82 1492.09 Q1254.3 1494.89 1247.82 1494.89 Q1245.64 1494.89 1243.33 1494.45 Q1241.03 1494.03 1238.58 1493.18 L1238.58 1488.66 Q1240.52 1489.8 1242.84 1490.38 Q1245.15 1490.96 1247.68 1490.96 Q1252.08 1490.96 1254.37 1489.22 Q1256.68 1487.48 1256.68 1484.17 Q1256.68 1481.12 1254.53 1479.41 Q1252.4 1477.67 1248.58 1477.67 L1244.55 1477.67 L1244.55 1473.83 L1248.76 1473.83 Q1252.21 1473.83 1254.04 1472.46 Q1255.87 1471.07 1255.87 1468.48 Q1255.87 1465.82 1253.97 1464.41 Q1252.1 1462.97 1248.58 1462.97 Q1246.66 1462.97 1244.46 1463.39 Q1242.26 1463.8 1239.62 1464.68 L1239.62 1460.52 Q1242.28 1459.78 1244.6 1459.41 Q1246.94 1459.03 1249 1459.03 Q1254.32 1459.03 1257.42 1461.47 Q1260.52 1463.87 1260.52 1467.99 Q1260.52 1470.86 1258.88 1472.85 Q1257.24 1474.82 1254.2 1475.59 Z" fill="#000000" fill-rule="nonzero" fill-opacity="1" /><path clip-path="url(#clip070)" d="M1280.2 1462.74 Q1276.59 1462.74 1274.76 1466.3 Q1272.95 1469.84 1272.95 1476.97 Q1272.95 1484.08 1274.76 1487.65 Q1276.59 1491.19 1280.2 1491.19 Q1283.83 1491.19 1285.64 1487.65 Q1287.47 1484.08 1287.47 1476.97 Q1287.47 1469.84 1285.64 1466.3 Q1283.83 1462.74 1280.2 1462.74 M1280.2 1459.03 Q1286.01 1459.03 1289.07 1463.64 Q1292.14 1468.22 1292.14 1476.97 Q1292.14 1485.7 1289.07 1490.31 Q1286.01 1494.89 1280.2 1494.89 Q1274.39 1494.89 1271.31 1490.31 Q1268.26 1485.7 1268.26 1476.97 Q1268.26 1468.22 1271.31 1463.64 Q1274.39 1459.03 1280.2 1459.03 Z" fill="#000000" fill-rule="nonzero" fill-opacity="1" /><path clip-path="url(#clip070)" d="M1589.86 1463.73 L1578.05 1482.18 L1589.86 1482.18 L1589.86 1463.73 M1588.63 1459.66 L1594.51 1459.66 L1594.51 1482.18 L1599.44 1482.18 L1599.44 1486.07 L1594.51 1486.07 L1594.51 1494.22 L1589.86 1494.22 L1589.86 1486.07 L1574.26 1486.07 L1574.26 1481.56 L1588.63 1459.66 Z" fill="#000000" fill-rule="nonzero" fill-opacity="1" /><path clip-path="url(#clip070)" d="M1617.17 1462.74 Q1613.56 1462.74 1611.73 1466.3 Q1609.93 1469.84 1609.93 1476.97 Q1609.93 1484.08 1611.73 1487.65 Q1613.56 1491.19 1617.17 1491.19 Q1620.81 1491.19 1622.61 1487.65 Q1624.44 1484.08 1624.44 1476.97 Q1624.44 1469.84 1622.61 1466.3 Q1620.81 1462.74 1617.17 1462.74 M1617.17 1459.03 Q1622.98 1459.03 1626.04 1463.64 Q1629.12 1468.22 1629.12 1476.97 Q1629.12 1485.7 1626.04 1490.31 Q1622.98 1494.89 1617.17 1494.89 Q1611.36 1494.89 1608.29 1490.31 Q1605.23 1485.7 1605.23 1476.97 Q1605.23 1468.22 1608.29 1463.64 Q1611.36 1459.03 1617.17 1459.03 Z" fill="#000000" fill-rule="nonzero" fill-opacity="1" /><path clip-path="url(#clip070)" d="M1912.71 1459.66 L1931.07 1459.66 L1931.07 1463.6 L1917 1463.6 L1917 1472.07 Q1918.01 1471.72 1919.03 1471.56 Q1920.05 1471.37 1921.07 1471.37 Q1926.86 1471.37 1930.24 1474.54 Q1933.62 1477.72 1933.62 1483.13 Q1933.62 1488.71 1930.14 1491.81 Q1926.67 1494.89 1920.35 1494.89 Q1918.18 1494.89 1915.91 1494.52 Q1913.66 1494.15 1911.26 1493.41 L1911.26 1488.71 Q1913.34 1489.84 1915.56 1490.4 Q1917.78 1490.96 1920.26 1490.96 Q1924.26 1490.96 1926.6 1488.85 Q1928.94 1486.74 1928.94 1483.13 Q1928.94 1479.52 1926.6 1477.41 Q1924.26 1475.31 1920.26 1475.31 Q1918.39 1475.31 1916.51 1475.72 Q1914.66 1476.14 1912.71 1477.02 L1912.71 1459.66 Z" fill="#000000" fill-rule="nonzero" fill-opacity="1" /><path clip-path="url(#clip070)" d="M1952.83 1462.74 Q1949.22 1462.74 1947.39 1466.3 Q1945.58 1469.84 1945.58 1476.97 Q1945.58 1484.08 1947.39 1487.65 Q1949.22 1491.19 1952.83 1491.19 Q1956.46 1491.19 1958.27 1487.65 Q1960.1 1484.08 1960.1 1476.97 Q1960.1 1469.84 1958.27 1466.3 Q1956.46 1462.74 1952.83 1462.74 M1952.83 1459.03 Q1958.64 1459.03 1961.7 1463.64 Q1964.77 1468.22 1964.77 1476.97 Q1964.77 1485.7 1961.7 1490.31 Q1958.64 1494.89 1952.83 1494.89 Q1947.02 1494.89 1943.94 1490.31 Q1940.89 1485.7 1940.89 1476.97 Q1940.89 1468.22 1943.94 1463.64 Q1947.02 1459.03 1952.83 1459.03 Z" fill="#000000" fill-rule="nonzero" fill-opacity="1" /><path clip-path="url(#clip070)" d="M2259.75 1475.08 Q2256.6 1475.08 2254.75 1477.23 Q2252.92 1479.38 2252.92 1483.13 Q2252.92 1486.86 2254.75 1489.03 Q2256.6 1491.19 2259.75 1491.19 Q2262.89 1491.19 2264.72 1489.03 Q2266.57 1486.86 2266.57 1483.13 Q2266.57 1479.38 2264.72 1477.23 Q2262.89 1475.08 2259.75 1475.08 M2269.03 1460.42 L2269.03 1464.68 Q2267.27 1463.85 2265.46 1463.41 Q2263.68 1462.97 2261.92 1462.97 Q2257.29 1462.97 2254.84 1466.09 Q2252.41 1469.22 2252.06 1475.54 Q2253.43 1473.53 2255.49 1472.46 Q2257.55 1471.37 2260.02 1471.37 Q2265.23 1471.37 2268.24 1474.54 Q2271.27 1477.69 2271.27 1483.13 Q2271.27 1488.46 2268.13 1491.67 Q2264.98 1494.89 2259.75 1494.89 Q2253.75 1494.89 2250.58 1490.31 Q2247.41 1485.7 2247.41 1476.97 Q2247.41 1468.78 2251.3 1463.92 Q2255.19 1459.03 2261.74 1459.03 Q2263.5 1459.03 2265.28 1459.38 Q2267.08 1459.73 2269.03 1460.42 Z" fill="#000000" fill-rule="nonzero" fill-opacity="1" /><path clip-path="url(#clip070)" d="M2289.33 1462.74 Q2285.72 1462.74 2283.89 1466.3 Q2282.08 1469.84 2282.08 1476.97 Q2282.08 1484.08 2283.89 1487.65 Q2285.72 1491.19 2289.33 1491.19 Q2292.96 1491.19 2294.77 1487.65 Q2296.6 1484.08 2296.6 1476.97 Q2296.6 1469.84 2294.77 1466.3 Q2292.96 1462.74 2289.33 1462.74 M2289.33 1459.03 Q2295.14 1459.03 2298.2 1463.64 Q2301.27 1468.22 2301.27 1476.97 Q2301.27 1485.7 2298.2 1490.31 Q2295.14 1494.89 2289.33 1494.89 Q2283.52 1494.89 2280.44 1490.31 Q2277.39 1485.7 2277.39 1476.97 Q2277.39 1468.22 2280.44 1463.64 Q2283.52 1459.03 2289.33 1459.03 Z" fill="#000000" fill-rule="nonzero" fill-opacity="1" /><path clip-path="url(#clip070)" d="M1200.96 1566.32 L1200.96 1564.56 Q1203.57 1564.56 1205.49 1563.76 Q1207.41 1562.95 1207.97 1562.37 Q1208.55 1561.76 1209.22 1560.79 L1218.55 1547.03 L1208.08 1531.19 Q1207.27 1529.99 1206.19 1529.6 Q1205.13 1529.21 1202.8 1529.21 L1201.71 1529.21 L1201.71 1527.44 Q1204.85 1527.6 1209.11 1527.6 Q1215.41 1527.6 1217.42 1527.44 L1217.42 1529.21 Q1215.72 1529.27 1214.72 1529.83 Q1213.72 1530.35 1213.72 1530.91 Q1213.72 1531.13 1214.11 1531.77 L1221.44 1542.75 L1227.95 1533.13 Q1228.45 1532.33 1228.45 1531.83 Q1228.45 1530.8 1227.5 1530.05 Q1226.59 1529.27 1224.92 1529.21 L1224.92 1527.44 Q1227.2 1527.6 1232.23 1527.6 Q1232.87 1527.6 1233.9 1527.57 Q1234.95 1527.55 1236.34 1527.49 Q1237.73 1527.44 1238.54 1527.44 L1238.54 1529.21 Q1232.78 1529.27 1230.28 1532.91 L1222.47 1544.33 L1234.48 1562.51 Q1235.34 1563.76 1236.42 1564.18 Q1237.51 1564.56 1239.84 1564.56 L1240.93 1564.56 L1240.93 1566.32 Q1237.34 1566.15 1233.53 1566.15 Q1227.23 1566.15 1225.22 1566.32 L1225.22 1564.56 Q1226.92 1564.51 1227.92 1563.98 Q1228.92 1563.43 1228.92 1562.84 Q1228.92 1562.79 1228.61 1562.23 L1219.64 1548.61 L1211.55 1560.56 Q1211 1561.48 1211 1561.92 Q1211 1562.84 1211.88 1563.68 Q1212.8 1564.48 1214.58 1564.56 L1214.58 1566.32 Q1212.52 1566.15 1207.27 1566.15 Q1207.1 1566.15 1200.96 1566.32 Z" fill="#000000" fill-rule="nonzero" fill-opacity="1" /><path clip-path="url(#clip070)" d="M1266.86 1552.09 Q1266.86 1542.47 1270.44 1534.72 Q1271.97 1531.47 1274.11 1528.74 Q1276.25 1526.02 1277.67 1524.82 Q1279.08 1523.63 1279.47 1523.63 Q1280.03 1523.63 1280.06 1524.18 Q1280.06 1524.46 1279.31 1525.16 Q1270.14 1534.49 1270.16 1552.09 Q1270.16 1569.73 1279.08 1578.71 Q1280.06 1579.68 1280.06 1579.99 Q1280.06 1580.54 1279.47 1580.54 Q1279.08 1580.54 1277.72 1579.41 Q1276.36 1578.27 1274.25 1575.65 Q1272.14 1573.04 1270.61 1569.85 Q1266.86 1562.09 1266.86 1552.09 Z" fill="#000000" fill-rule="nonzero" fill-opacity="1" /><path clip-path="url(#clip070)" d="M1285.11 1566.32 L1285.11 1564.56 Q1288.14 1564.56 1288.84 1564.2 Q1289.53 1563.81 1289.53 1561.98 L1289.53 1546.72 Q1289.53 1544.61 1288.78 1544.08 Q1288.06 1543.55 1285.11 1543.55 L1285.11 1541.78 L1293.12 1541.16 L1293.12 1547.14 Q1295.79 1541.16 1301.54 1541.16 Q1308.21 1541.16 1309.13 1546.72 Q1310.1 1544.56 1312.13 1542.86 Q1314.18 1541.16 1317.38 1541.16 Q1321.66 1541.16 1323.36 1543.28 Q1324.61 1544.69 1324.86 1546.28 Q1325.11 1547.86 1325.11 1551.98 L1325.11 1562.84 Q1325.16 1564.04 1326.08 1564.31 Q1327 1564.56 1329.55 1564.56 L1329.55 1566.32 Q1323.74 1566.15 1323.19 1566.15 Q1322.74 1566.15 1316.74 1566.32 L1316.74 1564.56 Q1319.77 1564.56 1320.47 1564.2 Q1321.19 1563.81 1321.19 1561.98 L1321.19 1548.72 Q1321.19 1545.83 1320.3 1544.14 Q1319.41 1542.42 1316.96 1542.42 Q1314.02 1542.42 1311.66 1544.89 Q1309.29 1547.36 1309.29 1551.53 L1309.29 1561.98 Q1309.29 1563.81 1309.99 1564.2 Q1310.71 1564.56 1313.74 1564.56 L1313.74 1566.32 Q1307.93 1566.15 1307.35 1566.15 Q1306.9 1566.15 1300.93 1566.32 L1300.93 1564.56 Q1303.96 1564.56 1304.65 1564.2 Q1305.37 1563.81 1305.37 1561.98 L1305.37 1548.72 Q1305.37 1545.83 1304.49 1544.14 Q1303.6 1542.42 1301.15 1542.42 Q1298.2 1542.42 1295.84 1544.89 Q1293.48 1547.36 1293.48 1551.53 L1293.48 1561.98 Q1293.48 1563.81 1294.17 1564.2 Q1294.9 1564.56 1297.9 1564.56 L1297.9 1566.32 Q1292.09 1566.15 1291.53 1566.15 Q1291.09 1566.15 1285.11 1566.32 Z" fill="#000000" fill-rule="nonzero" fill-opacity="1" /><path clip-path="url(#clip070)" d="M1333.92 1579.99 Q1333.92 1579.71 1334.64 1579.02 Q1343.81 1569.68 1343.81 1552.09 Q1343.81 1534.44 1335 1525.52 Q1333.92 1524.49 1333.92 1524.18 Q1333.92 1523.63 1334.47 1523.63 Q1334.86 1523.63 1336.22 1524.77 Q1337.61 1525.91 1339.7 1528.52 Q1341.81 1531.13 1343.37 1534.33 Q1347.12 1542.08 1347.12 1552.09 Q1347.12 1561.7 1343.53 1569.46 Q1342 1572.71 1339.86 1575.43 Q1337.72 1578.15 1336.31 1579.35 Q1334.89 1580.54 1334.47 1580.54 Q1333.92 1580.54 1333.92 1579.99 Z" fill="#000000" fill-rule="nonzero" fill-opacity="1" /><polyline clip-path="url(#clip070)" style="stroke:#000000; stroke-linecap:round; stroke-linejoin:round; stroke-width:4; stroke-opacity:1; fill:none" points="195.324,1431.82 195.324,114.832 "/>
<polyline clip-path="url(#clip070)" style="stroke:#000000; stroke-linecap:round; stroke-linejoin:round; stroke-width:4; stroke-opacity:1; fill:none" points="195.324,1315.39 214.221,1315.39 "/>
<polyline clip-path="url(#clip070)" style="stroke:#000000; stroke-linecap:round; stroke-linejoin:round; stroke-width:4; stroke-opacity:1; fill:none" points="195.324,919.475 214.221,919.475 "/>
<polyline clip-path="url(#clip070)" style="stroke:#000000; stroke-linecap:round; stroke-linejoin:round; stroke-width:4; stroke-opacity:1; fill:none" points="195.324,523.559 214.221,523.559 "/>
<polyline clip-path="url(#clip070)" style="stroke:#000000; stroke-linecap:round; stroke-linejoin:round; stroke-width:4; stroke-opacity:1; fill:none" points="195.324,127.643 214.221,127.643 "/>
<path clip-path="url(#clip070)" d="M147.379 1301.19 Q143.768 1301.19 141.939 1304.76 Q140.134 1308.3 140.134 1315.43 Q140.134 1322.53 141.939 1326.1 Q143.768 1329.64 147.379 1329.64 Q151.013 1329.64 152.819 1326.1 Q154.648 1322.53 154.648 1315.43 Q154.648 1308.3 152.819 1304.76 Q151.013 1301.19 147.379 1301.19 M147.379 1297.49 Q153.189 1297.49 156.245 1302.09 Q159.324 1306.68 159.324 1315.43 Q159.324 1324.15 156.245 1328.76 Q153.189 1333.34 147.379 1333.34 Q141.569 1333.34 138.49 1328.76 Q135.435 1324.15 135.435 1315.43 Q135.435 1306.68 138.49 1302.09 Q141.569 1297.49 147.379 1297.49 Z" fill="#000000" fill-rule="nonzero" fill-opacity="1" /><path clip-path="url(#clip070)" d="M108.028 932.82 L115.666 932.82 L115.666 906.455 L107.356 908.121 L107.356 903.862 L115.62 902.195 L120.296 902.195 L120.296 932.82 L127.935 932.82 L127.935 936.755 L108.028 936.755 L108.028 932.82 Z" fill="#000000" fill-rule="nonzero" fill-opacity="1" /><path clip-path="url(#clip070)" d="M147.379 905.274 Q143.768 905.274 141.939 908.839 Q140.134 912.381 140.134 919.51 Q140.134 926.617 141.939 930.181 Q143.768 933.723 147.379 933.723 Q151.013 933.723 152.819 930.181 Q154.648 926.617 154.648 919.51 Q154.648 912.381 152.819 908.839 Q151.013 905.274 147.379 905.274 M147.379 901.571 Q153.189 901.571 156.245 906.177 Q159.324 910.76 159.324 919.51 Q159.324 928.237 156.245 932.843 Q153.189 937.427 147.379 937.427 Q141.569 937.427 138.49 932.843 Q135.435 928.237 135.435 919.51 Q135.435 910.76 138.49 906.177 Q141.569 901.571 147.379 901.571 Z" fill="#000000" fill-rule="nonzero" fill-opacity="1" /><path clip-path="url(#clip070)" d="M111.245 536.904 L127.564 536.904 L127.564 540.839 L105.62 540.839 L105.62 536.904 Q108.282 534.15 112.865 529.52 Q117.472 524.867 118.652 523.525 Q120.898 521.002 121.777 519.265 Q122.68 517.506 122.68 515.816 Q122.68 513.062 120.736 511.326 Q118.815 509.59 115.713 509.59 Q113.514 509.59 111.06 510.353 Q108.629 511.117 105.852 512.668 L105.852 507.946 Q108.676 506.812 111.129 506.233 Q113.583 505.654 115.62 505.654 Q120.99 505.654 124.185 508.34 Q127.379 511.025 127.379 515.515 Q127.379 517.645 126.569 519.566 Q125.782 521.464 123.676 524.057 Q123.097 524.728 119.995 527.946 Q116.893 531.14 111.245 536.904 Z" fill="#000000" fill-rule="nonzero" fill-opacity="1" /><path clip-path="url(#clip070)" d="M147.379 509.358 Q143.768 509.358 141.939 512.923 Q140.134 516.464 140.134 523.594 Q140.134 530.701 141.939 534.265 Q143.768 537.807 147.379 537.807 Q151.013 537.807 152.819 534.265 Q154.648 530.701 154.648 523.594 Q154.648 516.464 152.819 512.923 Q151.013 509.358 147.379 509.358 M147.379 505.654 Q153.189 505.654 156.245 510.261 Q159.324 514.844 159.324 523.594 Q159.324 532.321 156.245 536.927 Q153.189 541.511 147.379 541.511 Q141.569 541.511 138.49 536.927 Q135.435 532.321 135.435 523.594 Q135.435 514.844 138.49 510.261 Q141.569 505.654 147.379 505.654 Z" fill="#000000" fill-rule="nonzero" fill-opacity="1" /><path clip-path="url(#clip070)" d="M121.384 126.289 Q124.74 127.007 126.615 129.275 Q128.514 131.544 128.514 134.877 Q128.514 139.993 124.995 142.794 Q121.477 145.595 114.995 145.595 Q112.819 145.595 110.504 145.155 Q108.213 144.738 105.759 143.882 L105.759 139.368 Q107.703 140.502 110.018 141.081 Q112.333 141.659 114.856 141.659 Q119.254 141.659 121.546 139.923 Q123.861 138.187 123.861 134.877 Q123.861 131.821 121.708 130.108 Q119.578 128.372 115.759 128.372 L111.731 128.372 L111.731 124.53 L115.944 124.53 Q119.393 124.53 121.222 123.164 Q123.051 121.775 123.051 119.183 Q123.051 116.521 121.152 115.109 Q119.277 113.673 115.759 113.673 Q113.838 113.673 111.639 114.09 Q109.44 114.507 106.801 115.386 L106.801 111.22 Q109.463 110.479 111.778 110.109 Q114.115 109.738 116.176 109.738 Q121.5 109.738 124.602 112.169 Q127.703 114.576 127.703 118.697 Q127.703 121.567 126.06 123.558 Q124.416 125.525 121.384 126.289 Z" fill="#000000" fill-rule="nonzero" fill-opacity="1" /><path clip-path="url(#clip070)" d="M147.379 113.442 Q143.768 113.442 141.939 117.007 Q140.134 120.548 140.134 127.678 Q140.134 134.784 141.939 138.349 Q143.768 141.891 147.379 141.891 Q151.013 141.891 152.819 138.349 Q154.648 134.784 154.648 127.678 Q154.648 120.548 152.819 117.007 Q151.013 113.442 147.379 113.442 M147.379 109.738 Q153.189 109.738 156.245 114.345 Q159.324 118.928 159.324 127.678 Q159.324 136.405 156.245 141.011 Q153.189 145.595 147.379 145.595 Q141.569 145.595 138.49 141.011 Q135.435 136.405 135.435 127.678 Q135.435 118.928 138.49 114.345 Q141.569 109.738 147.379 109.738 Z" fill="#000000" fill-rule="nonzero" fill-opacity="1" /><path clip-path="url(#clip070)" d="M20.8548 846.764 L19.0762 846.764 Q19.2429 843.179 19.2429 839.372 Q19.2429 833.008 19.0762 830.951 L20.8548 830.951 Q20.8548 833.063 21.1327 834.008 Q21.4106 834.925 22.2722 834.925 Q22.6612 834.925 23.2448 834.536 L40.0308 824.226 L24.7734 814.86 Q23.9118 814.304 23.0781 814.276 Q22.1054 814.276 21.494 815.082 Q20.8548 815.861 20.8548 817.528 L19.0762 817.528 Q19.2429 813.081 19.2429 810.969 Q19.2429 808.023 19.0762 805.411 L20.8548 805.411 Q20.8548 810.469 24.551 812.692 L42.4208 823.67 L53.3984 823.67 Q55.1492 823.67 55.6773 822.975 Q56.2053 822.253 56.2053 819.112 L56.2053 817.806 L57.9562 817.806 Q57.7894 819.862 57.7894 826.116 Q57.7894 832.369 57.9562 834.425 L56.2053 834.425 L56.2053 833.063 Q56.2053 829.979 55.7051 829.284 Q55.177 828.561 53.5096 828.561 L42.4208 828.561 L22.9391 840.511 Q22.0776 841.012 21.7163 841.429 Q21.355 841.818 21.1049 842.846 Q20.8548 843.874 20.8548 845.764 L20.8548 846.764 Z" fill="#000000" fill-rule="nonzero" fill-opacity="1" /><path clip-path="url(#clip070)" d="M43.727 780.149 Q34.1112 780.149 26.3575 776.564 Q23.1059 775.035 20.3823 772.895 Q17.6588 770.755 16.4638 769.338 Q15.2688 767.921 15.2688 767.532 Q15.2688 766.976 15.8246 766.948 Q16.1025 766.948 16.7973 767.698 Q26.1351 776.869 43.727 776.842 Q61.3745 776.842 70.3511 767.921 Q71.3238 766.948 71.6295 766.948 Q72.1853 766.948 72.1853 767.532 Q72.1853 767.921 71.0459 769.282 Q69.9064 770.644 67.294 772.756 Q64.6816 774.868 61.4856 776.397 Q53.7319 780.149 43.727 780.149 Z" fill="#000000" fill-rule="nonzero" fill-opacity="1" /><path clip-path="url(#clip070)" d="M57.9562 761.89 L56.2053 761.89 Q56.2053 758.861 55.844 758.166 Q55.4549 757.471 53.6207 757.471 L38.3633 757.471 Q36.2512 757.471 35.7231 758.221 Q35.1951 758.944 35.1951 761.89 L33.4165 761.89 L32.805 753.886 L38.7802 753.886 Q32.805 751.218 32.805 745.465 Q32.805 738.795 38.3633 737.878 Q36.1956 736.906 34.5003 734.877 Q32.805 732.82 32.805 729.624 Q32.805 725.344 34.9172 723.649 Q36.3345 722.398 37.9186 722.148 Q39.5027 721.898 43.6159 721.898 L54.4822 721.898 Q55.6773 721.843 55.9552 720.926 Q56.2053 720.008 56.2053 717.452 L57.9562 717.452 Q57.7894 723.26 57.7894 723.816 Q57.7894 724.26 57.9562 730.263 L56.2053 730.263 Q56.2053 727.234 55.844 726.539 Q55.4549 725.817 53.6207 725.817 L40.3643 725.817 Q37.474 725.817 35.7787 726.706 Q34.0557 727.595 34.0557 730.041 Q34.0557 732.987 36.5291 735.349 Q39.0025 737.711 43.1712 737.711 L53.6207 737.711 Q55.4549 737.711 55.844 737.017 Q56.2053 736.294 56.2053 733.265 L57.9562 733.265 Q57.7894 739.073 57.7894 739.657 Q57.7894 740.102 57.9562 746.077 L56.2053 746.077 Q56.2053 743.047 55.844 742.353 Q55.4549 741.63 53.6207 741.63 L40.3643 741.63 Q37.474 741.63 35.7787 742.519 Q34.0557 743.409 34.0557 745.854 Q34.0557 748.8 36.5291 751.162 Q39.0025 753.525 43.1712 753.525 L53.6207 753.525 Q55.4549 753.525 55.844 752.83 Q56.2053 752.107 56.2053 749.106 L57.9562 749.106 Q57.7894 754.914 57.7894 755.47 Q57.7894 755.915 57.9562 761.89 Z" fill="#000000" fill-rule="nonzero" fill-opacity="1" /><path clip-path="url(#clip070)" d="M71.6295 713.088 Q71.3516 713.088 70.6568 712.366 Q61.3189 703.195 43.727 703.195 Q26.0796 703.195 17.1586 712.005 Q16.1303 713.088 15.8246 713.088 Q15.2688 713.088 15.2688 712.533 Q15.2688 712.143 16.4082 710.782 Q17.5476 709.392 20.16 707.308 Q22.7724 705.196 25.9684 703.639 Q33.7222 699.888 43.727 699.888 Q53.3428 699.888 61.0966 703.473 Q64.3482 705.001 67.0717 707.141 Q69.7952 709.281 70.9903 710.698 Q72.1853 712.116 72.1853 712.533 Q72.1853 713.088 71.6295 713.088 Z" fill="#000000" fill-rule="nonzero" fill-opacity="1" /><path clip-path="url(#clip070)" d="M906.324 12.7395 L906.324 10.368 Q914.513 10.5903 915.958 10.5903 Q924.073 10.5903 926.815 10.368 L926.815 12.7395 Q920.59 12.7395 920.59 14.9258 Q920.59 15.2222 921.035 16.2968 L935.523 54.6117 L949.419 18.0384 Q949.79 16.8897 949.79 16.5191 Q949.79 14.9999 948.382 13.9253 Q947.01 12.8136 944.268 12.7395 L944.268 10.368 Q950.197 10.5903 952.902 10.5903 Q956.756 10.5903 960.276 10.368 L960.276 12.7395 Q953.903 12.8136 952.013 17.8161 L935.079 62.4303 Q934.782 63.3567 934.486 63.6161 Q934.189 63.8755 933.263 63.8755 Q932.522 63.8755 932.114 63.579 Q931.744 63.2826 931.373 62.208 L913.772 15.6298 Q913.031 13.5918 911.697 13.1842 Q910.363 12.7395 906.324 12.7395 Z" fill="#000000" fill-rule="nonzero" fill-opacity="1" /><path clip-path="url(#clip070)" d="M957.608 45.4962 Q957.608 38.3446 962.203 33.268 Q966.798 28.1915 973.394 28.1915 Q980.064 28.1915 983.51 32.5269 Q986.993 36.8624 986.993 43.0876 Q986.993 44.2363 986.696 44.4586 Q986.4 44.681 985.103 44.681 L963.908 44.681 Q963.908 52.4255 966.205 56.0569 Q969.392 61.1334 974.765 61.1334 Q975.506 61.1334 976.395 60.9852 Q977.284 60.837 979.1 60.207 Q980.916 59.54 982.509 57.7985 Q984.103 56.0569 985.029 53.3148 Q985.251 52.2402 985.992 52.2772 Q986.993 52.2772 986.993 53.1666 Q986.993 53.8336 986.252 55.3528 Q985.548 56.835 984.177 58.6137 Q982.806 60.3923 980.138 61.7263 Q977.507 63.0603 974.32 63.0603 Q967.65 63.0603 962.611 58.0208 Q957.608 52.9442 957.608 45.4962 M963.982 43.0876 L981.99 43.0876 Q981.99 41.4942 981.694 39.7156 Q981.435 37.9369 980.619 35.4913 Q979.841 33.0086 977.989 31.4523 Q976.136 29.896 973.394 29.896 Q972.171 29.896 970.837 30.4148 Q969.54 30.9335 967.947 32.1934 Q966.353 33.4533 965.242 36.3065 Q964.13 39.1598 963.982 43.0876 Z" fill="#000000" fill-rule="nonzero" fill-opacity="1" /><path clip-path="url(#clip070)" d="M991.625 62.208 L991.625 59.8735 Q995.664 59.8735 996.59 59.3918 Q997.517 58.873 997.517 56.4274 L997.517 16.9638 Q997.517 14.1476 996.516 13.4436 Q995.553 12.7395 991.625 12.7395 L991.625 10.368 L1002.52 9.55279 L1002.52 35.936 L1002.59 35.936 Q1003.82 33.1939 1006.56 30.9335 Q1009.3 28.6732 1013.52 28.6732 Q1019.23 28.6732 1021.49 31.4894 Q1023.16 33.3792 1023.49 35.4913 Q1023.86 37.6035 1023.86 43.0876 L1023.86 57.5761 Q1023.94 59.1695 1025.16 59.54 Q1026.38 59.8735 1029.79 59.8735 L1029.79 62.208 Q1022.05 61.9857 1021.27 61.9857 Q1020.68 61.9857 1012.71 62.208 L1012.71 59.8735 Q1016.75 59.8735 1017.67 59.3918 Q1018.64 58.873 1018.64 56.4274 L1018.64 38.7522 Q1018.64 34.8984 1017.45 32.6381 Q1016.27 30.3407 1013.01 30.3407 Q1009.08 30.3407 1005.93 33.6386 Q1002.78 36.9365 1002.78 42.4947 L1002.78 56.4274 Q1002.78 58.873 1003.7 59.3918 Q1004.67 59.8735 1008.67 59.8735 L1008.67 62.208 Q1000.93 61.9857 1000.18 61.9857 Q999.592 61.9857 991.625 62.208 Z" fill="#000000" fill-rule="nonzero" fill-opacity="1" /><path clip-path="url(#clip070)" d="M1033.79 62.208 L1033.79 59.8735 Q1037.83 59.8735 1038.76 59.3918 Q1039.69 58.873 1039.69 56.4274 L1039.69 36.0101 Q1039.69 33.1939 1038.72 32.5269 Q1037.8 31.8599 1034.09 31.8599 L1034.09 29.4884 L1044.69 28.6732 L1044.69 56.5015 Q1044.69 58.7619 1045.5 59.3177 Q1046.32 59.8735 1050.02 59.8735 L1050.02 62.208 Q1042.28 61.9857 1042.13 61.9857 Q1041.09 61.9857 1033.79 62.208 M1036.98 15.4445 Q1036.98 13.9253 1038.13 12.7025 Q1039.31 11.4426 1040.98 11.4426 Q1042.65 11.4426 1043.84 12.5913 Q1045.02 13.703 1045.02 15.4816 Q1045.02 17.2232 1043.84 18.3719 Q1042.65 19.4835 1040.98 19.4835 Q1039.24 19.4835 1038.09 18.2607 Q1036.98 17.0379 1036.98 15.4445 Z" fill="#000000" fill-rule="nonzero" fill-opacity="1" /><path clip-path="url(#clip070)" d="M1059.69 58.0578 Q1054.88 53.0184 1054.88 45.8297 Q1054.88 38.6039 1059.62 33.4162 Q1064.36 28.1915 1071.33 28.1915 Q1075.96 28.1915 1079.45 30.4148 Q1082.93 32.601 1082.93 36.3436 Q1082.93 38.0111 1081.93 38.9745 Q1080.96 39.9009 1079.45 39.9009 Q1077.85 39.9009 1076.89 38.9374 Q1075.96 37.9369 1075.96 36.4177 Q1075.96 35.7507 1076.18 35.0837 Q1076.41 34.4167 1077.22 33.7127 Q1078.07 33.0086 1079.52 32.8975 Q1076.81 30.1183 1071.55 30.1183 Q1071.48 30.1183 1071.4 30.1183 Q1067.55 30.1183 1064.36 33.7497 Q1061.18 37.3811 1061.18 45.6815 Q1061.18 50.0169 1062.21 53.2036 Q1063.29 56.3533 1065.03 57.9837 Q1066.77 59.6141 1068.48 60.3923 Q1070.18 61.1334 1071.85 61.1334 Q1079.3 61.1334 1081.82 53.1666 Q1082.04 52.4255 1082.78 52.4255 Q1083.78 52.4255 1083.78 53.1666 Q1083.78 53.5371 1083.48 54.5006 Q1083.19 55.464 1082.26 56.9832 Q1081.34 58.5025 1080 59.8365 Q1078.7 61.1334 1076.37 62.0968 Q1074.07 63.0603 1071.18 63.0603 Q1064.51 63.0603 1059.69 58.0578 Z" fill="#000000" fill-rule="nonzero" fill-opacity="1" /><path clip-path="url(#clip070)" d="M1088.49 62.208 L1088.49 59.8735 Q1092.53 59.8735 1093.45 59.3918 Q1094.38 58.873 1094.38 56.4274 L1094.38 16.9638 Q1094.38 14.1476 1093.38 13.4436 Q1092.41 12.7395 1088.49 12.7395 L1088.49 10.368 L1099.38 9.55279 L1099.38 56.4274 Q1099.38 58.873 1100.34 59.3918 Q1101.31 59.8735 1105.31 59.8735 L1105.31 62.208 Q1104.38 62.208 1102.46 62.1339 Q1100.53 62.0598 1099.12 62.0227 Q1097.71 61.9857 1096.9 61.9857 Q1096.01 61.9857 1088.49 62.208 Z" fill="#000000" fill-rule="nonzero" fill-opacity="1" /><path clip-path="url(#clip070)" d="M1109.09 45.4962 Q1109.09 38.3446 1113.68 33.268 Q1118.28 28.1915 1124.87 28.1915 Q1131.54 28.1915 1134.99 32.5269 Q1138.47 36.8624 1138.47 43.0876 Q1138.47 44.2363 1138.18 44.4586 Q1137.88 44.681 1136.58 44.681 L1115.39 44.681 Q1115.39 52.4255 1117.69 56.0569 Q1120.87 61.1334 1126.25 61.1334 Q1126.99 61.1334 1127.88 60.9852 Q1128.77 60.837 1130.58 60.207 Q1132.4 59.54 1133.99 57.7985 Q1135.58 56.0569 1136.51 53.3148 Q1136.73 52.2402 1137.47 52.2772 Q1138.47 52.2772 1138.47 53.1666 Q1138.47 53.8336 1137.73 55.3528 Q1137.03 56.835 1135.66 58.6137 Q1134.29 60.3923 1131.62 61.7263 Q1128.99 63.0603 1125.8 63.0603 Q1119.13 63.0603 1114.09 58.0208 Q1109.09 52.9442 1109.09 45.4962 M1115.46 43.0876 L1133.47 43.0876 Q1133.47 41.4942 1133.18 39.7156 Q1132.92 37.9369 1132.1 35.4913 Q1131.32 33.0086 1129.47 31.4523 Q1127.62 29.896 1124.87 29.896 Q1123.65 29.896 1122.32 30.4148 Q1121.02 30.9335 1119.43 32.1934 Q1117.83 33.4533 1116.72 36.3065 Q1115.61 39.1598 1115.46 43.0876 Z" fill="#000000" fill-rule="nonzero" fill-opacity="1" /><path clip-path="url(#clip070)" d="M1168.56 62.208 L1168.56 59.8735 L1170.38 59.8735 Q1174.49 59.8735 1175.42 59.2065 Q1176.38 58.5025 1176.38 56.2792 L1176.38 16.2968 Q1176.38 14.1106 1175.42 13.4436 Q1174.45 12.7395 1170.38 12.7395 L1168.56 12.7395 L1168.56 10.368 L1195.35 10.368 Q1203.02 10.368 1208.14 14.5923 Q1213.25 18.8165 1213.25 24.486 Q1213.25 30.1183 1208.03 34.1944 Q1202.84 38.2334 1195.95 38.2334 L1183.13 38.2334 L1183.13 56.2792 Q1183.13 58.4654 1184.05 59.1695 Q1185.02 59.8735 1189.13 59.8735 L1190.94 59.8735 L1190.94 62.208 Q1188.28 61.9857 1179.72 61.9857 Q1171.23 61.9857 1168.56 62.208 M1182.9 36.2695 L1193.35 36.2695 Q1196.76 36.2695 1199.24 35.306 Q1201.73 34.3426 1202.84 33.1939 Q1203.99 32.0081 1204.62 30.1183 Q1205.28 28.1915 1205.36 27.1539 Q1205.43 26.0793 1205.43 24.486 Q1205.43 22.8185 1205.36 21.781 Q1205.28 20.7064 1204.62 18.8165 Q1203.99 16.8897 1202.84 15.741 Q1201.73 14.5552 1199.24 13.6659 Q1196.8 12.7395 1193.35 12.7395 L1186.61 12.7395 Q1184.01 12.7395 1183.46 13.2583 Q1182.9 13.7771 1182.9 15.778 L1182.9 36.2695 Z" fill="#000000" fill-rule="nonzero" fill-opacity="1" /><path clip-path="url(#clip070)" d="M1218.55 54.9823 Q1218.55 48.5347 1226.15 45.1256 Q1230.7 42.9394 1240.12 42.3836 L1240.12 39.6044 Q1240.12 34.8984 1237.63 32.4157 Q1235.19 29.896 1232.07 29.896 Q1226.52 29.896 1223.85 33.3792 Q1226.11 33.4533 1226.92 34.602 Q1227.74 35.7136 1227.74 36.8624 Q1227.74 38.3816 1226.78 39.3821 Q1225.85 40.3455 1224.26 40.3455 Q1222.74 40.3455 1221.74 39.4192 Q1220.74 38.4557 1220.74 36.7882 Q1220.74 33.0827 1224.07 30.6371 Q1227.44 28.1915 1232.22 28.1915 Q1238.45 28.1915 1242.6 32.3787 Q1243.9 33.6756 1244.53 35.3431 Q1245.19 37.0106 1245.27 38.1222 Q1245.34 39.1968 1245.34 41.346 L1245.34 56.5015 Q1245.34 56.9462 1245.49 57.6873 Q1245.64 58.4284 1246.3 59.3918 Q1247.01 60.3182 1248.16 60.3182 Q1250.9 60.3182 1250.86 55.464 L1250.86 51.2027 L1252.79 51.2027 L1252.79 55.464 Q1252.79 59.503 1250.64 61.0963 Q1248.53 62.6527 1246.56 62.6527 Q1244.04 62.6527 1242.45 60.7999 Q1240.86 58.9472 1240.63 56.4274 Q1239.49 59.3177 1236.86 61.2075 Q1234.26 63.0603 1230.7 63.0603 Q1227.96 63.0603 1225.37 62.3562 Q1222.81 61.6892 1220.66 59.7994 Q1218.55 57.8726 1218.55 54.9823 M1224.4 54.9082 Q1224.4 57.7243 1226.41 59.54 Q1228.41 61.3557 1231.22 61.3557 Q1234.41 61.3557 1237.26 58.9101 Q1240.12 56.4274 1240.12 51.5732 L1240.12 43.9769 Q1231.7 44.2734 1228.04 47.6454 Q1224.4 50.9803 1224.4 54.9082 Z" fill="#000000" fill-rule="nonzero" fill-opacity="1" /><path clip-path="url(#clip070)" d="M1254.75 31.8599 L1254.75 30.1924 Q1258.24 30.0442 1260.53 27.5986 Q1262.87 25.1159 1263.65 22.0774 Q1264.46 19.0389 1264.54 15.5187 L1266.42 15.5187 L1266.42 29.4884 L1277.28 29.4884 L1277.28 31.8599 L1266.42 31.8599 L1266.42 52.9442 Q1266.42 61.1334 1271.54 61.1334 Q1273.72 61.1334 1275.17 58.9101 Q1276.62 56.6497 1276.62 52.6478 L1276.62 48.4606 L1278.5 48.4606 L1278.5 52.796 Q1278.5 56.9091 1276.62 59.9847 Q1274.73 63.0603 1270.98 63.0603 Q1269.61 63.0603 1268.24 62.6897 Q1266.91 62.3562 1265.13 61.4669 Q1263.39 60.5405 1262.27 58.3172 Q1261.2 56.0569 1261.2 52.796 L1261.2 31.8599 L1254.75 31.8599 Z" fill="#000000" fill-rule="nonzero" fill-opacity="1" /><path clip-path="url(#clip070)" d="M1285.17 62.208 L1285.17 59.8735 Q1289.21 59.8735 1290.14 59.3918 Q1291.07 58.873 1291.07 56.4274 L1291.07 16.9638 Q1291.07 14.1476 1290.07 13.4436 Q1289.1 12.7395 1285.17 12.7395 L1285.17 10.368 L1296.07 9.55279 L1296.07 35.936 L1296.14 35.936 Q1297.37 33.1939 1300.11 30.9335 Q1302.85 28.6732 1307.07 28.6732 Q1312.78 28.6732 1315.04 31.4894 Q1316.71 33.3792 1317.04 35.4913 Q1317.41 37.6035 1317.41 43.0876 L1317.41 57.5761 Q1317.49 59.1695 1318.71 59.54 Q1319.93 59.8735 1323.34 59.8735 L1323.34 62.208 Q1315.6 61.9857 1314.82 61.9857 Q1314.23 61.9857 1306.26 62.208 L1306.26 59.8735 Q1310.3 59.8735 1311.22 59.3918 Q1312.19 58.873 1312.19 56.4274 L1312.19 38.7522 Q1312.19 34.8984 1311 32.6381 Q1309.82 30.3407 1306.56 30.3407 Q1302.63 30.3407 1299.48 33.6386 Q1296.33 36.9365 1296.33 42.4947 L1296.33 56.4274 Q1296.33 58.873 1297.25 59.3918 Q1298.22 59.8735 1302.22 59.8735 L1302.22 62.208 Q1294.48 61.9857 1293.73 61.9857 Q1293.14 61.9857 1285.17 62.208 Z" fill="#000000" fill-rule="nonzero" fill-opacity="1" /><path clip-path="url(#clip070)" d="M1357.17 58.1319 Q1352.17 53.1666 1352.17 45.9779 Q1352.17 38.7522 1357.06 33.4903 Q1361.99 28.1915 1369.03 28.1915 Q1375.92 28.1915 1380.85 33.4533 Q1385.82 38.6781 1385.82 45.9779 Q1385.82 53.1295 1380.81 58.0949 Q1375.85 63.0603 1368.96 63.0603 Q1362.21 63.0603 1357.17 58.1319 M1358.47 45.348 Q1358.47 52.7219 1360.4 56.0569 Q1363.36 61.1334 1369.03 61.1334 Q1371.85 61.1334 1374.18 59.6141 Q1376.55 58.0949 1377.85 55.5381 Q1379.52 52.2031 1379.52 45.348 Q1379.52 38.0481 1377.52 34.8243 Q1374.55 29.896 1368.96 29.896 Q1366.51 29.896 1364.1 31.1929 Q1361.73 32.4528 1360.29 34.9725 Q1358.47 38.3075 1358.47 45.348 Z" fill="#000000" fill-rule="nonzero" fill-opacity="1" /><path clip-path="url(#clip070)" d="M1390.45 62.208 L1390.45 59.8735 Q1394.49 59.8735 1395.41 59.3918 Q1396.34 58.873 1396.34 56.4274 L1396.34 36.0842 Q1396.34 33.268 1395.34 32.564 Q1394.38 31.8599 1390.45 31.8599 L1390.45 29.4884 L1401.12 28.6732 L1401.12 36.64 Q1404.68 28.6732 1412.35 28.6732 Q1418.05 28.6732 1420.31 31.4894 Q1421.98 33.3792 1422.32 35.4913 Q1422.69 37.6035 1422.69 43.0876 L1422.69 57.5761 Q1422.76 59.1695 1423.98 59.54 Q1425.21 59.8735 1428.61 59.8735 L1428.61 62.208 Q1420.87 61.9857 1420.09 61.9857 Q1419.5 61.9857 1411.53 62.208 L1411.53 59.8735 Q1415.57 59.8735 1416.5 59.3918 Q1417.46 58.873 1417.46 56.4274 L1417.46 38.7522 Q1417.46 34.8984 1416.28 32.6381 Q1415.09 30.3407 1411.83 30.3407 Q1407.9 30.3407 1404.75 33.6386 Q1401.6 36.9365 1401.6 42.4947 L1401.6 56.4274 Q1401.6 58.873 1402.53 59.3918 Q1403.49 59.8735 1407.49 59.8735 L1407.49 62.208 Q1399.75 61.9857 1399.01 61.9857 Q1398.41 61.9857 1390.45 62.208 Z" fill="#000000" fill-rule="nonzero" fill-opacity="1" /><path clip-path="url(#clip070)" d="M1458.07 27.895 L1459.52 10.8497 L1505.87 10.8497 L1507.32 27.895 L1505.43 27.895 Q1505.13 24.486 1504.84 22.5221 Q1504.58 20.5581 1503.91 18.7054 Q1503.28 16.8156 1502.47 15.9263 Q1501.69 14.9999 1500.17 14.2958 Q1498.65 13.5547 1496.68 13.3695 Q1494.72 13.1842 1491.76 13.1842 Q1488.27 13.1842 1487.42 13.3324 Q1486.49 13.5547 1486.27 14.2217 Q1486.05 14.8517 1486.05 16.2227 L1486.05 56.2051 Q1486.05 57.7243 1486.35 58.3543 Q1486.68 58.9472 1488.42 59.4289 Q1490.16 59.8735 1494.02 59.8735 L1497.06 59.8735 L1497.06 62.208 Q1493.94 61.9857 1482.64 61.9857 Q1471.41 61.9857 1468.3 62.208 L1468.3 59.8735 L1471.34 59.8735 Q1475.19 59.8735 1476.93 59.4289 Q1478.71 58.9472 1479.01 58.3543 Q1479.31 57.7243 1479.31 56.2051 L1479.31 16.2227 Q1479.31 15.1481 1479.23 14.7034 Q1479.16 14.2588 1478.82 13.8882 Q1478.49 13.4806 1477.71 13.3324 Q1476.97 13.1842 1473.64 13.1842 Q1470.67 13.1842 1468.67 13.3695 Q1466.71 13.5547 1465.19 14.2958 Q1463.67 14.9999 1462.85 15.9263 Q1462.08 16.8156 1461.41 18.7054 Q1460.78 20.5581 1460.52 22.5221 Q1460.26 24.486 1459.96 27.895 L1458.07 27.895 Z" fill="#000000" fill-rule="nonzero" fill-opacity="1" /><path clip-path="url(#clip070)" d="M1505.91 62.208 L1505.91 59.8735 Q1509.95 59.8735 1510.88 59.3918 Q1511.84 58.873 1511.84 56.4274 L1511.84 36.0842 Q1511.84 33.268 1510.84 32.564 Q1509.88 31.8599 1505.91 31.8599 L1505.91 29.4884 L1516.47 28.6732 L1516.47 37.0106 Q1517.55 33.7497 1519.81 31.23 Q1522.1 28.6732 1525.81 28.6732 Q1528.26 28.6732 1529.81 30.0442 Q1531.41 31.4153 1531.41 33.3051 Q1531.41 34.9725 1530.37 35.8248 Q1529.37 36.64 1528.14 36.64 Q1526.77 36.64 1525.81 35.7878 Q1524.88 34.8984 1524.88 33.3792 Q1524.88 32.4528 1525.29 31.7488 Q1525.74 31.0077 1526.07 30.7483 Q1526.4 30.4889 1526.63 30.4148 Q1526.48 30.3407 1525.81 30.3407 Q1521.62 30.3407 1519.21 34.5279 Q1516.84 38.6781 1516.84 44.6069 L1516.84 56.2792 Q1516.84 58.4654 1517.73 59.1695 Q1518.66 59.8735 1522.62 59.8735 L1524.22 59.8735 L1524.22 62.208 Q1521.18 61.9857 1514.58 61.9857 Q1513.66 61.9857 1512.21 62.0227 Q1510.77 62.0598 1508.88 62.1339 Q1506.99 62.208 1505.91 62.208 Z" fill="#000000" fill-rule="nonzero" fill-opacity="1" /><path clip-path="url(#clip070)" d="M1536.63 54.9823 Q1536.63 48.5347 1544.23 45.1256 Q1548.78 42.9394 1558.2 42.3836 L1558.2 39.6044 Q1558.2 34.8984 1555.71 32.4157 Q1553.27 29.896 1550.16 29.896 Q1544.6 29.896 1541.93 33.3792 Q1544.19 33.4533 1545 34.602 Q1545.82 35.7136 1545.82 36.8624 Q1545.82 38.3816 1544.86 39.3821 Q1543.93 40.3455 1542.34 40.3455 Q1540.82 40.3455 1539.82 39.4192 Q1538.82 38.4557 1538.82 36.7882 Q1538.82 33.0827 1542.15 30.6371 Q1545.52 28.1915 1550.3 28.1915 Q1556.53 28.1915 1560.68 32.3787 Q1561.98 33.6756 1562.61 35.3431 Q1563.27 37.0106 1563.35 38.1222 Q1563.42 39.1968 1563.42 41.346 L1563.42 56.5015 Q1563.42 56.9462 1563.57 57.6873 Q1563.72 58.4284 1564.38 59.3918 Q1565.09 60.3182 1566.24 60.3182 Q1568.98 60.3182 1568.94 55.464 L1568.94 51.2027 L1570.87 51.2027 L1570.87 55.464 Q1570.87 59.503 1568.72 61.0963 Q1566.61 62.6527 1564.64 62.6527 Q1562.12 62.6527 1560.53 60.7999 Q1558.94 58.9472 1558.72 56.4274 Q1557.57 59.3177 1554.94 61.2075 Q1552.34 63.0603 1548.78 63.0603 Q1546.04 63.0603 1543.45 62.3562 Q1540.89 61.6892 1538.74 59.7994 Q1536.63 57.8726 1536.63 54.9823 M1542.48 54.9082 Q1542.48 57.7243 1544.49 59.54 Q1546.49 61.3557 1549.3 61.3557 Q1552.49 61.3557 1555.34 58.9101 Q1558.2 56.4274 1558.2 51.5732 L1558.2 43.9769 Q1549.78 44.2734 1546.12 47.6454 Q1542.48 50.9803 1542.48 54.9082 Z" fill="#000000" fill-rule="nonzero" fill-opacity="1" /><path clip-path="url(#clip070)" d="M1578.8 58.0578 Q1573.98 53.0184 1573.98 45.8297 Q1573.98 38.6039 1578.72 33.4162 Q1583.47 28.1915 1590.43 28.1915 Q1595.07 28.1915 1598.55 30.4148 Q1602.03 32.601 1602.03 36.3436 Q1602.03 38.0111 1601.03 38.9745 Q1600.07 39.9009 1598.55 39.9009 Q1596.96 39.9009 1595.99 38.9374 Q1595.07 37.9369 1595.07 36.4177 Q1595.07 35.7507 1595.29 35.0837 Q1595.51 34.4167 1596.33 33.7127 Q1597.18 33.0086 1598.62 32.8975 Q1595.92 30.1183 1590.66 30.1183 Q1590.58 30.1183 1590.51 30.1183 Q1586.65 30.1183 1583.47 33.7497 Q1580.28 37.3811 1580.28 45.6815 Q1580.28 50.0169 1581.32 53.2036 Q1582.39 56.3533 1584.13 57.9837 Q1585.88 59.6141 1587.58 60.3923 Q1589.29 61.1334 1590.95 61.1334 Q1598.4 61.1334 1600.92 53.1666 Q1601.14 52.4255 1601.88 52.4255 Q1602.88 52.4255 1602.88 53.1666 Q1602.88 53.5371 1602.59 54.5006 Q1602.29 55.464 1601.37 56.9832 Q1600.44 58.5025 1599.11 59.8365 Q1597.81 61.1334 1595.47 62.0968 Q1593.18 63.0603 1590.29 63.0603 Q1583.62 63.0603 1578.8 58.0578 Z" fill="#000000" fill-rule="nonzero" fill-opacity="1" /><path clip-path="url(#clip070)" d="M1605.07 62.208 L1605.07 59.8735 Q1609.11 59.8735 1610.04 59.3918 Q1611 58.873 1611 56.4274 L1611 16.9638 Q1611 14.1476 1610 13.4436 Q1609.04 12.7395 1605.07 12.7395 L1605.07 10.368 L1616 9.55279 L1616 45.9779 L1626.71 36.7141 Q1628.38 35.269 1628.38 33.7497 Q1628.38 32.0081 1626.19 31.8599 L1626.19 29.4884 Q1629.38 29.7107 1634.68 29.7107 Q1637.79 29.7107 1639.98 29.4884 L1639.98 31.8599 Q1635.2 32.0823 1630.42 35.936 Q1629.34 36.7882 1626.79 39.0115 Q1624.27 41.1978 1624.27 41.4201 Q1624.27 41.4942 1624.34 41.6795 Q1624.45 41.8648 1624.6 42.013 Q1624.75 42.1612 1624.75 42.2353 L1634.38 55.8345 Q1636.35 58.5766 1637.79 59.2436 Q1639.24 59.8735 1641.76 59.8735 L1641.76 62.208 Q1638.49 61.9857 1635.12 61.9857 Q1633.31 61.9857 1626.93 62.208 L1626.93 59.8735 Q1629.68 59.8735 1629.68 58.0949 Q1629.68 56.8721 1623.52 48.3865 Q1623.08 47.7936 1622.08 46.4967 Q1621.15 45.1256 1620.63 44.4586 L1615.78 48.6088 L1615.78 56.4274 Q1615.78 58.873 1616.71 59.3918 Q1617.67 59.8735 1621.71 59.8735 L1621.71 62.208 Q1617.15 61.9857 1613.37 61.9857 Q1612.59 61.9857 1605.07 62.208 Z" fill="#000000" fill-rule="nonzero" fill-opacity="1" /><polyline clip-path="url(#clip072)" style="stroke:#009af9; stroke-linecap:round; stroke-linejoin:round; stroke-width:4; stroke-opacity:1; fill:none" points="256.383,1315.39 269.059,1315.36 281.734,1315.31 294.41,1315.22 307.085,1315.11 319.76,1314.97 332.435,1314.8 345.109,1314.6 357.783,1314.38 370.457,1314.13 383.13,1313.85 395.803,1313.54 408.476,1313.2 421.148,1312.83 433.819,1312.44 446.489,1312.02 459.159,1311.57 471.828,1311.09 484.497,1310.58 497.164,1310.05 509.831,1309.49 522.496,1308.9 535.161,1308.28 547.825,1307.63 560.487,1306.96 573.149,1306.25 585.809,1305.52 598.469,1304.77 611.127,1303.98 623.783,1303.16 636.439,1302.32 649.093,1301.45 661.745,1300.55 674.396,1299.62 687.046,1298.67 699.694,1297.68 712.341,1296.67 724.985,1295.63 737.628,1294.57 750.27,1293.47 762.909,1292.35 775.547,1291.19 788.183,1290.01 800.817,1288.81 813.449,1287.57 826.079,1286.31 838.707,1285.02 851.333,1283.7 863.957,1282.35 876.579,1280.97 889.198,1279.57 901.815,1278.14 914.43,1276.68 927.043,1275.19 939.653,1273.67 952.26,1272.13 964.865,1270.56 977.468,1268.96 990.068,1267.33 1002.67,1265.67 1015.26,1263.99 1027.85,1262.28 1040.44,1260.54 1053.03,1258.77 1065.61,1256.98 1078.19,1255.15 1090.77,1253.3 1103.34,1251.42 1115.92,1249.52 1128.48,1247.58 1141.05,1245.62 1153.61,1243.63 1166.17,1241.61 1178.73,1239.57 1191.28,1237.49 1203.83,1235.39 1216.37,1233.26 1228.92,1231.1 1241.46,1228.92 1253.99,1226.7 1266.52,1224.46 1279.05,1222.19 1291.58,1219.9 1304.1,1217.57 1316.61,1215.22 1329.13,1212.84 1341.64,1210.43 1354.14,1208 1366.64,1205.54 1379.14,1203.04 1391.64,1200.53 1404.13,1197.98 1416.61,1195.41 1429.09,1192.8 1441.57,1190.17 1454.04,1187.52 1466.51,1184.83 1478.98,1182.12 1491.44,1179.38 1503.89,1176.61 1516.34,1173.82 1528.79,1171 1541.23,1168.14 1553.67,1165.27 1566.1,1162.36 1578.53,1159.43 1590.95,1156.47 1603.37,1153.48 1615.79,1150.46 1628.2,1147.42 1640.6,1144.35 1653,1141.25 1665.39,1138.12 1677.78,1134.97 1690.17,1131.79 1702.55,1128.58 1714.87,1125.1 1727.14,1121.34 1739.35,1117.32 1751.48,1113.02 1763.55,1108.46 1775.55,1103.62 1787.46,1098.53 1799.29,1093.17 1811.03,1087.55 1822.68,1081.66 1834.23,1075.53 1845.69,1069.13 1857.03,1062.49 1868.27,1055.59 1879.4,1048.44 1890.41,1041.05 1901.31,1033.42 1912.07,1025.55 1922.71,1017.44 1933.22,1009.09 1943.59,1000.51 1953.82,991.706 1963.92,982.675 1973.86,973.422 1983.65,963.95 1993.29,954.262 2002.78,944.362 2012.1,934.254 2021.26,923.94 2030.26,913.425 2039.08,902.713 2047.73,891.807 2056.21,880.71 2064.5,869.428 2072.61,857.964 2080.54,846.322 2088.28,834.506 2095.83,822.521 2103.19,810.37 2110.35,798.058 2117.32,785.59 2124.08,772.969 2130.64,760.201 2136.99,747.289 2143.14,734.239 2149.07,721.055 2154.8,707.741 2160.31,694.303 2165.6,680.745 2170.68,667.072 2175.53,653.289 2180.17,639.401 2184.58,625.412 2188.76,611.328 2192.73,597.154 2196.46,582.894 2199.96,568.554 2203.24,554.139 2206.28,539.654 2209.09,525.104 2211.67,510.494 2214.01,495.83 2216.12,481.116 2217.99,466.358 2219.62,451.561 2221.02,436.731 2222.18,421.872 2223.1,406.99 2223.79,392.09 2224.23,377.178 2224.44,362.259 2224.41,347.337 2224.14,332.419 2223.63,317.51 2222.88,302.614 2221.89,287.738 2220.67,272.886 2219.21,258.064 2217.51,243.278 2215.57,228.531 2213.4,213.83 2211,199.18 2208.36,184.586 2205.48,170.052 "/>
<polyline clip-path="url(#clip072)" style="stroke:#e26f46; stroke-linecap:round; stroke-linejoin:round; stroke-width:12; stroke-opacity:1; fill:none" points="256.383,1315.39 269.059,1315.36 281.734,1315.29 294.409,1315.18 307.084,1315.03 319.759,1314.84 332.433,1314.62 345.106,1314.35 357.779,1314.05 370.451,1313.71 383.122,1313.32 395.792,1312.9 408.461,1312.44 421.129,1311.95 433.796,1311.41 446.461,1310.83 459.125,1310.22 471.787,1309.56 484.447,1308.87 497.106,1308.13 509.763,1307.36 522.418,1306.55 535.07,1305.7 547.721,1304.81 560.369,1303.89 573.016,1302.92 585.659,1301.92 598.3,1300.87 610.939,1299.79 623.574,1298.67 636.207,1297.51 648.837,1296.31 661.464,1295.07 674.088,1293.79 686.709,1292.48 699.326,1291.13 711.94,1289.73 724.55,1288.3 737.157,1286.83 749.76,1285.32 762.36,1283.78 774.955,1282.19 787.547,1280.57 800.134,1278.91 812.718,1277.21 825.297,1275.47 837.872,1273.7 850.442,1271.88 863.008,1270.03 875.569,1268.14 888.126,1266.21 900.678,1264.24 913.224,1262.24 925.766,1260.2 938.303,1258.12 950.835,1256 963.362,1253.84 975.883,1251.65 988.398,1249.42 1000.91,1247.15 1013.41,1244.85 1025.91,1242.51 1038.41,1240.13 1050.89,1237.71 1063.37,1235.26 1075.85,1232.76 1088.32,1230.24 1100.78,1227.67 1113.24,1225.07 1125.69,1222.43 1138.13,1219.75 1150.57,1217.04 1163,1214.29 1175.43,1211.51 1187.85,1208.69 1200.26,1205.83 1212.66,1202.93 1225.06,1200 1237.45,1197.03 1249.83,1194.03 1262.2,1190.99 1274.57,1187.92 1286.93,1184.81 1299.29,1181.66 1311.63,1178.48 1323.97,1175.26 1336.3,1172.01 1348.62,1168.72 1360.94,1165.39 1373.24,1162.03 1385.54,1158.64 1397.83,1155.21 1410.12,1151.76 1422.4,1148.29 1434.67,1144.79 1446.93,1141.28 1459.19,1137.73 1471.45,1134.17 1483.69,1130.58 1495.93,1126.97 1508.16,1123.33 1520.39,1119.67 1532.61,1115.99 1544.82,1112.28 1557.03,1108.55 1569.23,1104.79 1581.42,1101.01 1593.6,1097.21 1605.78,1093.38 1617.95,1089.53 1630.12,1085.66 1642.27,1081.76 1654.42,1077.84 1666.57,1073.89 1678.7,1069.92 1690.83,1065.93 1702,1061.96 1713.11,1057.81 1724.14,1053.46 1735.11,1048.93 1746.01,1044.2 1756.83,1039.27 1767.58,1034.14 1778.24,1028.8 1788.82,1023.27 1799.32,1017.55 1809.73,1011.63 1820.06,1005.52 1830.3,999.222 1840.44,992.737 1850.5,986.067 1860.46,979.215 1870.33,972.183 1880.11,964.973 1889.79,957.586 1899.37,950.024 1908.85,942.291 1918.23,934.387 1927.51,926.314 1936.69,918.074 1945.77,909.669 1954.74,901.101 1963.61,892.371 1972.38,883.481 1981.04,874.432 1989.59,865.226 1998.04,855.864 2006.37,846.348 2014.6,836.679 2022.72,826.858 2030.73,816.886 2038.63,806.765 2046.41,796.495 2054.09,786.078 2061.65,775.514 2069.1,764.805 2076.43,753.95 2083.65,742.952 2090.75,731.809 2097.74,720.524 2104.61,709.097 2111.36,697.529 2118,685.819 2124.52,673.97 2130.92,661.98 2137.2,649.85 2143.36,637.581 2149.4,625.173 2155.32,612.625 2161.11,599.937 2166.79,587.11 2172.34,574.143 2177.76,561.036 2183.06,547.789 2188.23,534.401 2193.28,520.871 2198.19,507.2 2202.98,493.387 2207.63,479.431 2212.15,465.331 2216.53,451.087 2220.77,436.698 2224.88,422.164 2228.85,407.483 2232.67,392.655 2236.34,377.679 2239.87,362.555 2243.25,347.281 2246.48,331.857 2249.55,316.282 2252.46,300.555 2255.21,284.676 2257.8,268.645 2260.21,252.46 2262.46,236.121 2264.53,219.628 2266.43,202.98 2268.14,186.177 2269.66,169.219 2271,152.105 "/>
<polyline clip-path="url(#clip072)" style="stroke:#808080; stroke-linecap:round; stroke-linejoin:round; stroke-width:4; stroke-opacity:1; fill:none" points="256.383,1315.39 268.932,1236.18 281.481,1236.12 294.029,1236.04 306.578,1235.93 319.126,1235.79 331.674,1235.62 344.222,1235.43 356.769,1235.21 369.316,1234.95 381.863,1234.68 394.409,1234.37 406.955,1234.04 419.5,1233.67 432.044,1233.28 444.588,1232.87 457.131,1232.42 469.674,1231.95 482.215,1231.45 494.756,1230.92 507.296,1230.36 519.835,1229.78 532.373,1229.16 544.91,1228.52 557.446,1227.86 569.981,1227.16 582.515,1226.44 595.048,1225.68 607.579,1224.91 620.109,1224.1 632.638,1223.26 645.165,1222.4 657.692,1221.51 670.216,1220.59 682.739,1219.65 695.261,1218.67 707.781,1217.67 720.299,1216.64 732.816,1215.58 745.331,1214.5 757.844,1213.39 770.355,1212.25 782.865,1211.08 795.373,1209.88 807.878,1208.66 820.382,1207.41 832.884,1206.13 845.384,1204.82 857.881,1203.49 870.377,1202.13 882.87,1200.74 895.361,1199.32 907.849,1197.87 920.336,1196.4 932.82,1194.9 945.301,1193.37 957.78,1191.81 970.257,1190.23 982.731,1188.62 995.202,1186.98 1007.67,1185.31 1020.14,1183.62 1032.6,1181.9 1045.06,1180.15 1057.52,1178.37 1069.97,1176.56 1082.42,1174.73 1094.87,1172.87 1107.32,1170.98 1119.76,1169.07 1132.2,1167.13 1144.64,1165.15 1157.07,1163.16 1169.5,1161.13 1181.93,1159.08 1194.35,1157 1206.77,1154.89 1219.19,1152.75 1231.6,1150.59 1244.01,1148.4 1256.42,1146.18 1268.82,1143.93 1281.22,1141.66 1293.62,1139.36 1306.01,1137.03 1318.4,1134.67 1330.78,1132.29 1343.16,1129.88 1355.54,1127.44 1367.91,1124.97 1380.28,1122.48 1392.65,1119.96 1405.01,1117.41 1417.36,1114.83 1429.72,1112.23 1442.07,1109.6 1454.41,1106.94 1466.75,1104.26 1479.08,1101.54 1491.42,1098.8 1503.74,1096.04 1516.06,1093.24 1528.38,1090.42 1540.7,1087.57 1553,1084.69 1565.31,1081.79 1577.61,1078.86 1589.9,1075.9 1602.19,1072.91 1614.48,1069.9 1626.76,1066.86 1639.03,1063.79 1651.3,1060.7 1663.57,1057.58 1675.83,1054.43 1688.08,1051.25 1699.17,1048.1 1710.21,1044.71 1721.19,1041.07 1732.12,1037.19 1742.97,1033.07 1753.76,1028.71 1764.48,1024.11 1775.12,1019.27 1785.69,1014.2 1796.17,1008.89 1806.56,1003.35 1816.86,997.587 1827.07,991.592 1837.18,985.372 1847.19,978.929 1857.1,972.265 1866.89,965.383 1876.58,958.284 1886.15,950.972 1895.6,943.45 1904.93,935.718 1914.13,927.782 1923.2,919.642 1932.15,911.303 1940.95,902.767 1949.62,894.037 1958.15,885.117 1966.53,876.009 1974.77,866.716 1982.86,857.243 1990.79,847.591 1998.57,837.766 2006.18,827.77 2013.64,817.607 2020.93,807.28 2028.06,796.793 2035.02,786.15 2041.8,775.354 2048.42,764.41 2054.85,753.322 2061.11,742.092 2067.19,730.726 2073.08,719.227 2078.79,707.599 2084.31,695.847 2089.64,683.974 2094.78,671.985 2099.73,659.885 2104.48,647.676 2109.04,635.365 2113.4,622.955 2117.56,610.45 2121.52,597.855 2125.27,585.174 2128.83,572.413 2132.18,559.574 2135.32,546.664 2138.25,533.687 2140.98,520.647 2143.5,507.548 2145.81,494.396 2147.9,481.195 2149.79,467.95 2151.46,454.666 2152.92,441.347 2154.17,427.997 2155.2,414.623 2156.02,401.228 2156.62,387.817 2157.01,374.395 2157.18,360.967 2157.14,347.538 2156.89,334.112 2156.42,320.694 2155.73,307.288 2154.83,293.9 2153.72,280.535 2152.39,267.197 2150.85,253.89 2149.1,240.62 2147.13,227.391 2144.95,214.209 2142.57,201.076 2139.97,187.999 "/>
<polyline clip-path="url(#clip072)" style="stroke:#808080; stroke-linecap:round; stroke-linejoin:round; stroke-width:4; stroke-opacity:1; fill:none" points="256.383,1315.39 269.185,1394.55 281.988,1394.49 294.79,1394.4 307.592,1394.29 320.394,1394.15 333.195,1393.98 345.996,1393.78 358.797,1393.55 371.598,1393.3 384.398,1393.01 397.198,1392.7 409.997,1392.36 422.795,1391.99 435.593,1391.6 448.39,1391.17 461.187,1390.72 473.983,1390.23 486.778,1389.72 499.572,1389.18 512.365,1388.61 525.158,1388.02 537.949,1387.39 550.739,1386.74 563.529,1386.06 576.317,1385.35 589.104,1384.61 601.89,1383.85 614.674,1383.05 627.457,1382.23 640.239,1381.38 653.02,1380.5 665.799,1379.59 678.577,1378.65 691.353,1377.69 704.127,1376.69 716.9,1375.67 729.672,1374.62 742.441,1373.55 755.209,1372.44 767.975,1371.3 780.739,1370.14 793.501,1368.95 806.262,1367.73 819.02,1366.48 831.777,1365.21 844.531,1363.9 857.283,1362.57 870.033,1361.21 882.781,1359.82 895.527,1358.4 908.27,1356.95 921.011,1355.48 933.749,1353.98 946.486,1352.45 959.219,1350.89 971.95,1349.3 984.679,1347.68 997.405,1346.04 1010.13,1344.37 1022.85,1342.67 1035.57,1340.94 1048.28,1339.18 1060.99,1337.4 1073.7,1335.59 1086.41,1333.74 1099.11,1331.87 1111.81,1329.98 1124.51,1328.05 1137.21,1326.1 1149.9,1324.12 1162.59,1322.11 1175.27,1320.07 1187.95,1318 1200.63,1315.91 1213.3,1313.78 1225.98,1311.63 1238.64,1309.45 1251.31,1307.25 1263.97,1305.01 1276.63,1302.75 1289.28,1300.46 1301.93,1298.14 1314.58,1295.79 1327.22,1293.41 1339.86,1291.01 1352.49,1288.58 1365.12,1286.12 1377.75,1283.63 1390.37,1281.12 1402.99,1278.57 1415.6,1276 1428.21,1273.4 1440.82,1270.77 1453.42,1268.12 1466.02,1265.44 1478.61,1262.72 1491.2,1259.98 1503.79,1257.22 1516.37,1254.42 1528.94,1251.6 1541.52,1248.75 1554.08,1245.87 1566.64,1242.96 1579.2,1240.03 1591.75,1237.07 1604.3,1234.08 1616.84,1231.06 1629.38,1228.01 1641.92,1224.94 1654.44,1221.84 1666.97,1218.71 1679.49,1215.55 1692,1212.37 1704.51,1209.15 1717.01,1205.91 1730.57,1202.1 1744.07,1197.98 1757.5,1193.56 1770.85,1188.85 1784.13,1183.84 1797.33,1178.54 1810.44,1172.95 1823.45,1167.06 1836.37,1160.89 1849.19,1154.44 1861.9,1147.7 1874.51,1140.68 1887,1133.38 1899.37,1125.81 1911.61,1117.96 1923.73,1109.84 1935.72,1101.46 1947.57,1092.81 1959.28,1083.9 1970.84,1074.73 1982.26,1065.31 1993.52,1055.63 2004.63,1045.71 2015.57,1035.54 2026.35,1025.13 2036.97,1014.49 2047.41,1003.61 2057.67,992.499 2067.75,981.164 2077.66,969.608 2087.37,957.834 2096.9,945.847 2106.23,933.651 2115.36,921.25 2124.29,908.649 2133.02,895.852 2141.55,882.863 2149.86,869.688 2157.97,856.33 2165.85,842.795 2173.52,829.088 2180.97,815.213 2188.2,801.175 2195.2,786.98 2201.97,772.632 2208.51,758.136 2214.81,743.497 2220.88,728.722 2226.72,713.814 2232.31,698.78 2237.67,683.624 2242.77,668.352 2247.64,652.97 2252.25,637.482 2256.62,621.895 2260.74,606.214 2264.61,590.444 2268.22,574.591 2271.58,558.661 2274.68,542.66 2277.53,526.592 2280.12,510.464 2282.45,494.281 2284.52,478.05 2286.33,461.776 2287.88,445.464 2289.16,429.121 2290.19,412.752 2290.96,396.363 2291.46,379.961 2291.7,363.55 2291.67,347.136 2291.39,330.727 2290.84,314.326 2290.03,297.94 2288.95,281.576 2287.62,265.238 2286.02,248.932 2284.17,232.665 2282.05,216.442 2279.67,200.269 2277.04,184.151 2274.15,168.095 2271,152.105 "/>
<path clip-path="url(#clip070)" d="M267.238 417.932 L822.03 417.932 L822.03 158.732 L267.238 158.732  Z" fill="#ffffff" fill-rule="evenodd" fill-opacity="1"/>
<polyline clip-path="url(#clip070)" style="stroke:#000000; stroke-linecap:round; stroke-linejoin:round; stroke-width:4; stroke-opacity:1; fill:none" points="267.238,417.932 822.03,417.932 822.03,158.732 267.238,158.732 267.238,417.932 "/>
<polyline clip-path="url(#clip070)" style="stroke:#009af9; stroke-linecap:round; stroke-linejoin:round; stroke-width:4; stroke-opacity:1; fill:none" points="291.209,210.572 435.038,210.572 "/>
<path clip-path="url(#clip070)" d="M486.88 195.954 L486.88 200.884 Q484.519 198.685 481.834 197.597 Q479.172 196.509 476.162 196.509 Q470.237 196.509 467.088 200.144 Q463.94 203.755 463.94 210.606 Q463.94 217.435 467.088 221.069 Q470.237 224.68 476.162 224.68 Q479.172 224.68 481.834 223.592 Q484.519 222.505 486.88 220.305 L486.88 225.19 Q484.426 226.856 481.672 227.69 Q478.94 228.523 475.885 228.523 Q468.037 228.523 463.524 223.731 Q459.01 218.917 459.01 210.606 Q459.01 202.273 463.524 197.482 Q468.037 192.667 475.885 192.667 Q478.986 192.667 481.718 193.5 Q484.473 194.31 486.88 195.954 Z" fill="#000000" fill-rule="nonzero" fill-opacity="1" /><path clip-path="url(#clip070)" d="M516.093 213.824 L516.093 215.907 L496.51 215.907 Q496.787 220.305 499.148 222.62 Q501.533 224.912 505.769 224.912 Q508.222 224.912 510.514 224.31 Q512.829 223.708 515.097 222.505 L515.097 226.532 Q512.806 227.504 510.398 228.014 Q507.991 228.523 505.514 228.523 Q499.31 228.523 495.676 224.912 Q492.065 221.301 492.065 215.143 Q492.065 208.778 495.491 205.051 Q498.94 201.301 504.773 201.301 Q510.005 201.301 513.037 204.681 Q516.093 208.037 516.093 213.824 M511.834 212.574 Q511.787 209.079 509.866 206.995 Q507.968 204.912 504.82 204.912 Q501.255 204.912 499.102 206.926 Q496.973 208.94 496.648 212.597 L511.834 212.574 Z" fill="#000000" fill-rule="nonzero" fill-opacity="1" /><path clip-path="url(#clip070)" d="M544.634 212.204 L544.634 227.852 L540.375 227.852 L540.375 212.343 Q540.375 208.662 538.94 206.833 Q537.505 205.005 534.634 205.005 Q531.185 205.005 529.195 207.204 Q527.204 209.403 527.204 213.199 L527.204 227.852 L522.921 227.852 L522.921 201.926 L527.204 201.926 L527.204 205.954 Q528.732 203.616 530.792 202.458 Q532.875 201.301 535.583 201.301 Q540.051 201.301 542.343 204.079 Q544.634 206.833 544.634 212.204 Z" fill="#000000" fill-rule="nonzero" fill-opacity="1" /><path clip-path="url(#clip070)" d="M557.343 194.565 L557.343 201.926 L566.116 201.926 L566.116 205.236 L557.343 205.236 L557.343 219.31 Q557.343 222.481 558.199 223.384 Q559.079 224.287 561.741 224.287 L566.116 224.287 L566.116 227.852 L561.741 227.852 Q556.81 227.852 554.935 226.023 Q553.06 224.171 553.06 219.31 L553.06 205.236 L549.935 205.236 L549.935 201.926 L553.06 201.926 L553.06 194.565 L557.343 194.565 Z" fill="#000000" fill-rule="nonzero" fill-opacity="1" /><path clip-path="url(#clip070)" d="M593.893 213.824 L593.893 215.907 L574.31 215.907 Q574.588 220.305 576.949 222.62 Q579.333 224.912 583.569 224.912 Q586.023 224.912 588.315 224.31 Q590.629 223.708 592.898 222.505 L592.898 226.532 Q590.606 227.504 588.199 228.014 Q585.791 228.523 583.315 228.523 Q577.111 228.523 573.477 224.912 Q569.866 221.301 569.866 215.143 Q569.866 208.778 573.292 205.051 Q576.741 201.301 582.574 201.301 Q587.805 201.301 590.838 204.681 Q593.893 208.037 593.893 213.824 M589.634 212.574 Q589.588 209.079 587.666 206.995 Q585.768 204.912 582.62 204.912 Q579.055 204.912 576.903 206.926 Q574.773 208.94 574.449 212.597 L589.634 212.574 Z" fill="#000000" fill-rule="nonzero" fill-opacity="1" /><path clip-path="url(#clip070)" d="M615.907 205.907 Q615.189 205.491 614.333 205.306 Q613.5 205.097 612.481 205.097 Q608.87 205.097 606.926 207.458 Q605.004 209.796 605.004 214.194 L605.004 227.852 L600.722 227.852 L600.722 201.926 L605.004 201.926 L605.004 205.954 Q606.347 203.593 608.5 202.458 Q610.652 201.301 613.731 201.301 Q614.171 201.301 614.703 201.37 Q615.236 201.417 615.884 201.532 L615.907 205.907 Z" fill="#000000" fill-rule="nonzero" fill-opacity="1" /><path clip-path="url(#clip070)" d="M620.375 191.833 L624.634 191.833 L624.634 227.852 L620.375 227.852 L620.375 191.833 Z" fill="#000000" fill-rule="nonzero" fill-opacity="1" /><path clip-path="url(#clip070)" d="M633.546 201.926 L637.805 201.926 L637.805 227.852 L633.546 227.852 L633.546 201.926 M633.546 191.833 L637.805 191.833 L637.805 197.227 L633.546 197.227 L633.546 191.833 Z" fill="#000000" fill-rule="nonzero" fill-opacity="1" /><path clip-path="url(#clip070)" d="M668.268 212.204 L668.268 227.852 L664.009 227.852 L664.009 212.343 Q664.009 208.662 662.573 206.833 Q661.138 205.005 658.268 205.005 Q654.819 205.005 652.828 207.204 Q650.837 209.403 650.837 213.199 L650.837 227.852 L646.555 227.852 L646.555 201.926 L650.837 201.926 L650.837 205.954 Q652.365 203.616 654.425 202.458 Q656.509 201.301 659.217 201.301 Q663.685 201.301 665.976 204.079 Q668.268 206.833 668.268 212.204 Z" fill="#000000" fill-rule="nonzero" fill-opacity="1" /><path clip-path="url(#clip070)" d="M698.939 213.824 L698.939 215.907 L679.356 215.907 Q679.634 220.305 681.995 222.62 Q684.379 224.912 688.615 224.912 Q691.069 224.912 693.36 224.31 Q695.675 223.708 697.944 222.505 L697.944 226.532 Q695.652 227.504 693.245 228.014 Q690.837 228.523 688.36 228.523 Q682.157 228.523 678.522 224.912 Q674.911 221.301 674.911 215.143 Q674.911 208.778 678.337 205.051 Q681.786 201.301 687.62 201.301 Q692.851 201.301 695.883 204.681 Q698.939 208.037 698.939 213.824 M694.68 212.574 Q694.633 209.079 692.712 206.995 Q690.814 204.912 687.666 204.912 Q684.101 204.912 681.948 206.926 Q679.819 208.94 679.495 212.597 L694.68 212.574 Z" fill="#000000" fill-rule="nonzero" fill-opacity="1" /><polyline clip-path="url(#clip070)" style="stroke:#e26f46; stroke-linecap:round; stroke-linejoin:round; stroke-width:12; stroke-opacity:1; fill:none" points="291.209,262.412 435.038,262.412 "/>
<path clip-path="url(#clip070)" d="M475.399 263.488 Q476.903 263.997 478.315 265.664 Q479.75 267.331 481.186 270.247 L485.931 279.692 L480.908 279.692 L476.487 270.826 Q474.774 267.354 473.153 266.22 Q471.556 265.085 468.778 265.085 L463.686 265.085 L463.686 279.692 L459.01 279.692 L459.01 245.132 L469.565 245.132 Q475.491 245.132 478.408 247.609 Q481.324 250.085 481.324 255.085 Q481.324 258.349 479.797 260.502 Q478.292 262.655 475.399 263.488 M463.686 248.974 L463.686 261.243 L469.565 261.243 Q472.945 261.243 474.658 259.692 Q476.394 258.118 476.394 255.085 Q476.394 252.053 474.658 250.525 Q472.945 248.974 469.565 248.974 L463.686 248.974 Z" fill="#000000" fill-rule="nonzero" fill-opacity="1" /><path clip-path="url(#clip070)" d="M502.505 266.659 Q497.343 266.659 495.352 267.84 Q493.361 269.02 493.361 271.868 Q493.361 274.136 494.843 275.479 Q496.348 276.798 498.917 276.798 Q502.459 276.798 504.588 274.298 Q506.741 271.775 506.741 267.608 L506.741 266.659 L502.505 266.659 M511 264.9 L511 279.692 L506.741 279.692 L506.741 275.757 Q505.283 278.118 503.107 279.252 Q500.931 280.363 497.783 280.363 Q493.801 280.363 491.44 278.141 Q489.102 275.895 489.102 272.145 Q489.102 267.77 492.019 265.548 Q494.959 263.326 500.769 263.326 L506.741 263.326 L506.741 262.909 Q506.741 259.97 504.797 258.372 Q502.875 256.752 499.38 256.752 Q497.158 256.752 495.051 257.284 Q492.945 257.817 491 258.882 L491 254.946 Q493.338 254.044 495.537 253.604 Q497.736 253.141 499.82 253.141 Q505.445 253.141 508.222 256.058 Q511 258.974 511 264.9 Z" fill="#000000" fill-rule="nonzero" fill-opacity="1" /><path clip-path="url(#clip070)" d="M538.431 254.761 L538.431 258.743 Q536.625 257.747 534.796 257.261 Q532.991 256.752 531.139 256.752 Q526.995 256.752 524.704 259.391 Q522.412 262.007 522.412 266.752 Q522.412 271.497 524.704 274.136 Q526.995 276.752 531.139 276.752 Q532.991 276.752 534.796 276.266 Q536.625 275.757 538.431 274.761 L538.431 278.696 Q536.648 279.53 534.727 279.946 Q532.829 280.363 530.676 280.363 Q524.82 280.363 521.371 276.682 Q517.921 273.002 517.921 266.752 Q517.921 260.409 521.394 256.775 Q524.889 253.141 530.954 253.141 Q532.921 253.141 534.796 253.558 Q536.671 253.951 538.431 254.761 Z" fill="#000000" fill-rule="nonzero" fill-opacity="1" /><path clip-path="url(#clip070)" d="M568.014 265.664 L568.014 267.747 L548.431 267.747 Q548.708 272.145 551.069 274.46 Q553.454 276.752 557.69 276.752 Q560.143 276.752 562.435 276.15 Q564.75 275.548 567.018 274.345 L567.018 278.372 Q564.727 279.344 562.319 279.854 Q559.912 280.363 557.435 280.363 Q551.231 280.363 547.597 276.752 Q543.986 273.141 543.986 266.983 Q543.986 260.618 547.412 256.891 Q550.861 253.141 556.694 253.141 Q561.926 253.141 564.958 256.521 Q568.014 259.877 568.014 265.664 M563.755 264.414 Q563.708 260.919 561.787 258.835 Q559.889 256.752 556.741 256.752 Q553.176 256.752 551.023 258.766 Q548.894 260.78 548.569 264.437 L563.755 264.414 Z" fill="#000000" fill-rule="nonzero" fill-opacity="1" /><path clip-path="url(#clip070)" d="M593.662 254.761 L593.662 258.743 Q591.856 257.747 590.028 257.261 Q588.222 256.752 586.37 256.752 Q582.227 256.752 579.935 259.391 Q577.643 262.007 577.643 266.752 Q577.643 271.497 579.935 274.136 Q582.227 276.752 586.37 276.752 Q588.222 276.752 590.028 276.266 Q591.856 275.757 593.662 274.761 L593.662 278.696 Q591.879 279.53 589.958 279.946 Q588.06 280.363 585.907 280.363 Q580.051 280.363 576.602 276.682 Q573.153 273.002 573.153 266.752 Q573.153 260.409 576.625 256.775 Q580.12 253.141 586.185 253.141 Q588.153 253.141 590.028 253.558 Q591.903 253.951 593.662 254.761 Z" fill="#000000" fill-rule="nonzero" fill-opacity="1" /><path clip-path="url(#clip070)" d="M612.852 266.659 Q607.69 266.659 605.699 267.84 Q603.708 269.02 603.708 271.868 Q603.708 274.136 605.19 275.479 Q606.694 276.798 609.264 276.798 Q612.805 276.798 614.935 274.298 Q617.088 271.775 617.088 267.608 L617.088 266.659 L612.852 266.659 M621.347 264.9 L621.347 279.692 L617.088 279.692 L617.088 275.757 Q615.629 278.118 613.453 279.252 Q611.277 280.363 608.129 280.363 Q604.148 280.363 601.787 278.141 Q599.449 275.895 599.449 272.145 Q599.449 267.77 602.365 265.548 Q605.305 263.326 611.115 263.326 L617.088 263.326 L617.088 262.909 Q617.088 259.97 615.143 258.372 Q613.222 256.752 609.727 256.752 Q607.504 256.752 605.398 257.284 Q603.291 257.817 601.347 258.882 L601.347 254.946 Q603.685 254.044 605.884 253.604 Q608.083 253.141 610.166 253.141 Q615.791 253.141 618.569 256.058 Q621.347 258.974 621.347 264.9 Z" fill="#000000" fill-rule="nonzero" fill-opacity="1" /><path clip-path="url(#clip070)" d="M645.143 257.747 Q644.425 257.331 643.569 257.146 Q642.736 256.937 641.717 256.937 Q638.106 256.937 636.162 259.298 Q634.24 261.636 634.24 266.034 L634.24 279.692 L629.958 279.692 L629.958 253.766 L634.24 253.766 L634.24 257.794 Q635.583 255.433 637.736 254.298 Q639.888 253.141 642.967 253.141 Q643.407 253.141 643.939 253.21 Q644.472 253.257 645.12 253.372 L645.143 257.747 Z" fill="#000000" fill-rule="nonzero" fill-opacity="1" /><path clip-path="url(#clip070)" d="M653.638 245.132 L653.638 257.979 L649.703 257.979 L649.703 245.132 L653.638 245.132 Z" fill="#000000" fill-rule="nonzero" fill-opacity="1" /><path clip-path="url(#clip070)" d="M679.171 254.53 L679.171 258.558 Q677.365 257.632 675.421 257.169 Q673.476 256.706 671.393 256.706 Q668.222 256.706 666.624 257.678 Q665.05 258.65 665.05 260.595 Q665.05 262.076 666.185 262.933 Q667.319 263.766 670.745 264.53 L672.203 264.854 Q676.74 265.826 678.638 267.608 Q680.559 269.368 680.559 272.539 Q680.559 276.15 677.689 278.257 Q674.842 280.363 669.842 280.363 Q667.759 280.363 665.49 279.946 Q663.245 279.553 660.745 278.743 L660.745 274.345 Q663.106 275.571 665.398 276.196 Q667.689 276.798 669.935 276.798 Q672.944 276.798 674.564 275.78 Q676.185 274.738 676.185 272.863 Q676.185 271.127 675.004 270.201 Q673.847 269.275 669.888 268.419 L668.407 268.071 Q664.448 267.238 662.689 265.525 Q660.93 263.789 660.93 260.78 Q660.93 257.122 663.523 255.132 Q666.115 253.141 670.884 253.141 Q673.245 253.141 675.328 253.488 Q677.411 253.835 679.171 254.53 Z" fill="#000000" fill-rule="nonzero" fill-opacity="1" /><path clip-path="url(#clip070)" d="M707.272 248.974 L707.272 261.96 L713.152 261.96 Q716.416 261.96 718.198 260.271 Q719.981 258.581 719.981 255.456 Q719.981 252.354 718.198 250.664 Q716.416 248.974 713.152 248.974 L707.272 248.974 M702.596 245.132 L713.152 245.132 Q718.962 245.132 721.925 247.771 Q724.911 250.386 724.911 255.456 Q724.911 260.571 721.925 263.187 Q718.962 265.803 713.152 265.803 L707.272 265.803 L707.272 279.692 L702.596 279.692 L702.596 245.132 Z" fill="#000000" fill-rule="nonzero" fill-opacity="1" /><path clip-path="url(#clip070)" d="M740.652 266.659 Q735.49 266.659 733.499 267.84 Q731.508 269.02 731.508 271.868 Q731.508 274.136 732.99 275.479 Q734.494 276.798 737.064 276.798 Q740.605 276.798 742.735 274.298 Q744.888 271.775 744.888 267.608 L744.888 266.659 L740.652 266.659 M749.147 264.9 L749.147 279.692 L744.888 279.692 L744.888 275.757 Q743.43 278.118 741.254 279.252 Q739.078 280.363 735.93 280.363 Q731.948 280.363 729.587 278.141 Q727.249 275.895 727.249 272.145 Q727.249 267.77 730.166 265.548 Q733.106 263.326 738.916 263.326 L744.888 263.326 L744.888 262.909 Q744.888 259.97 742.943 258.372 Q741.022 256.752 737.527 256.752 Q735.305 256.752 733.198 257.284 Q731.092 257.817 729.147 258.882 L729.147 254.946 Q731.485 254.044 733.684 253.604 Q735.883 253.141 737.967 253.141 Q743.592 253.141 746.369 256.058 Q749.147 258.974 749.147 264.9 Z" fill="#000000" fill-rule="nonzero" fill-opacity="1" /><path clip-path="url(#clip070)" d="M762.133 246.405 L762.133 253.766 L770.906 253.766 L770.906 257.076 L762.133 257.076 L762.133 271.15 Q762.133 274.321 762.99 275.224 Q763.869 276.127 766.531 276.127 L770.906 276.127 L770.906 279.692 L766.531 279.692 Q761.601 279.692 759.726 277.863 Q757.851 276.011 757.851 271.15 L757.851 257.076 L754.726 257.076 L754.726 253.766 L757.851 253.766 L757.851 246.405 L762.133 246.405 Z" fill="#000000" fill-rule="nonzero" fill-opacity="1" /><path clip-path="url(#clip070)" d="M798.059 264.044 L798.059 279.692 L793.8 279.692 L793.8 264.183 Q793.8 260.502 792.364 258.673 Q790.929 256.845 788.059 256.845 Q784.61 256.845 782.619 259.044 Q780.628 261.243 780.628 265.039 L780.628 279.692 L776.346 279.692 L776.346 243.673 L780.628 243.673 L780.628 257.794 Q782.156 255.456 784.216 254.298 Q786.3 253.141 789.008 253.141 Q793.476 253.141 795.767 255.919 Q798.059 258.673 798.059 264.044 Z" fill="#000000" fill-rule="nonzero" fill-opacity="1" /><polyline clip-path="url(#clip070)" style="stroke:#808080; stroke-linecap:round; stroke-linejoin:round; stroke-width:4; stroke-opacity:1; fill:none" points="291.209,314.252 435.038,314.252 "/>
<path clip-path="url(#clip070)" d="M459.01 295.513 L463.269 295.513 L463.269 331.532 L459.01 331.532 L459.01 295.513 Z" fill="#000000" fill-rule="nonzero" fill-opacity="1" /><path clip-path="url(#clip070)" d="M472.181 305.606 L476.44 305.606 L476.44 331.532 L472.181 331.532 L472.181 305.606 M472.181 295.513 L476.44 295.513 L476.44 300.907 L472.181 300.907 L472.181 295.513 Z" fill="#000000" fill-rule="nonzero" fill-opacity="1" /><path clip-path="url(#clip070)" d="M505.537 310.583 Q507.134 307.712 509.357 306.347 Q511.579 304.981 514.588 304.981 Q518.639 304.981 520.838 307.828 Q523.037 310.652 523.037 315.884 L523.037 331.532 L518.755 331.532 L518.755 316.023 Q518.755 312.296 517.435 310.49 Q516.116 308.685 513.408 308.685 Q510.097 308.685 508.176 310.884 Q506.255 313.083 506.255 316.879 L506.255 331.532 L501.972 331.532 L501.972 316.023 Q501.972 312.273 500.653 310.49 Q499.334 308.685 496.579 308.685 Q493.315 308.685 491.394 310.907 Q489.473 313.106 489.473 316.879 L489.473 331.532 L485.19 331.532 L485.19 305.606 L489.473 305.606 L489.473 309.634 Q490.931 307.249 492.968 306.115 Q495.005 304.981 497.806 304.981 Q500.63 304.981 502.597 306.416 Q504.588 307.851 505.537 310.583 Z" fill="#000000" fill-rule="nonzero" fill-opacity="1" /><path clip-path="url(#clip070)" d="M531.533 305.606 L535.792 305.606 L535.792 331.532 L531.533 331.532 L531.533 305.606 M531.533 295.513 L535.792 295.513 L535.792 300.907 L531.533 300.907 L531.533 295.513 Z" fill="#000000" fill-rule="nonzero" fill-opacity="1" /><path clip-path="url(#clip070)" d="M548.917 298.245 L548.917 305.606 L557.69 305.606 L557.69 308.916 L548.917 308.916 L548.917 322.99 Q548.917 326.161 549.773 327.064 Q550.653 327.967 553.315 327.967 L557.69 327.967 L557.69 331.532 L553.315 331.532 Q548.384 331.532 546.509 329.703 Q544.634 327.851 544.634 322.99 L544.634 308.916 L541.509 308.916 L541.509 305.606 L544.634 305.606 L544.634 298.245 L548.917 298.245 Z" fill="#000000" fill-rule="nonzero" fill-opacity="1" /><path clip-path="url(#clip070)" d="M572.551 314.888 L572.551 322.11 L580.676 322.11 L580.676 324.31 L572.551 324.31 L572.551 331.532 L570.12 331.532 L570.12 324.31 L561.995 324.31 L561.995 322.11 L570.12 322.11 L570.12 314.888 L572.551 314.888 Z" fill="#000000" fill-rule="nonzero" fill-opacity="1" /><polyline clip-path="url(#clip070)" style="stroke:#808080; stroke-linecap:round; stroke-linejoin:round; stroke-width:4; stroke-opacity:1; fill:none" points="291.209,366.092 435.038,366.092 "/>
<path clip-path="url(#clip070)" d="M459.01 347.353 L463.269 347.353 L463.269 383.372 L459.01 383.372 L459.01 347.353 Z" fill="#000000" fill-rule="nonzero" fill-opacity="1" /><path clip-path="url(#clip070)" d="M472.181 357.446 L476.44 357.446 L476.44 383.372 L472.181 383.372 L472.181 357.446 M472.181 347.353 L476.44 347.353 L476.44 352.747 L472.181 352.747 L472.181 347.353 Z" fill="#000000" fill-rule="nonzero" fill-opacity="1" /><path clip-path="url(#clip070)" d="M505.537 362.423 Q507.134 359.552 509.357 358.187 Q511.579 356.821 514.588 356.821 Q518.639 356.821 520.838 359.668 Q523.037 362.492 523.037 367.724 L523.037 383.372 L518.755 383.372 L518.755 367.863 Q518.755 364.136 517.435 362.33 Q516.116 360.525 513.408 360.525 Q510.097 360.525 508.176 362.724 Q506.255 364.923 506.255 368.719 L506.255 383.372 L501.972 383.372 L501.972 367.863 Q501.972 364.113 500.653 362.33 Q499.334 360.525 496.579 360.525 Q493.315 360.525 491.394 362.747 Q489.473 364.946 489.473 368.719 L489.473 383.372 L485.19 383.372 L485.19 357.446 L489.473 357.446 L489.473 361.474 Q490.931 359.089 492.968 357.955 Q495.005 356.821 497.806 356.821 Q500.63 356.821 502.597 358.256 Q504.588 359.691 505.537 362.423 Z" fill="#000000" fill-rule="nonzero" fill-opacity="1" /><path clip-path="url(#clip070)" d="M531.533 357.446 L535.792 357.446 L535.792 383.372 L531.533 383.372 L531.533 357.446 M531.533 347.353 L535.792 347.353 L535.792 352.747 L531.533 352.747 L531.533 347.353 Z" fill="#000000" fill-rule="nonzero" fill-opacity="1" /><path clip-path="url(#clip070)" d="M548.917 350.085 L548.917 357.446 L557.69 357.446 L557.69 360.756 L548.917 360.756 L548.917 374.83 Q548.917 378.001 549.773 378.904 Q550.653 379.807 553.315 379.807 L557.69 379.807 L557.69 383.372 L553.315 383.372 Q548.384 383.372 546.509 381.543 Q544.634 379.691 544.634 374.83 L544.634 360.756 L541.509 360.756 L541.509 357.446 L544.634 357.446 L544.634 350.085 L548.917 350.085 Z" fill="#000000" fill-rule="nonzero" fill-opacity="1" /><path clip-path="url(#clip070)" d="M561.995 373.95 L580.676 373.95 L580.676 376.15 L561.995 376.15 L561.995 373.95 Z" fill="#000000" fill-rule="nonzero" fill-opacity="1" /></svg>
