<?xml version="1.0" encoding="utf-8"?>
<svg xmlns="http://www.w3.org/2000/svg" xmlns:xlink="http://www.w3.org/1999/xlink" width="600" height="400" viewBox="0 0 2400 1600">
<defs>
  <clipPath id="clip740">
    <rect x="0" y="0" width="2400" height="1600"/>
  </clipPath>
</defs>
<path clip-path="url(#clip740)" d="M0 1600 L2400 1600 L2400 0 L0 0  Z" fill="#ffffff" fill-rule="evenodd" fill-opacity="1"/>
<defs>
  <clipPath id="clip741">
    <rect x="480" y="0" width="1681" height="1600"/>
  </clipPath>
</defs>
<path clip-path="url(#clip740)" d="M195.324 1431.82 L2352.76 1431.82 L2352.76 47.2441 L195.324 47.2441  Z" fill="#ffffff" fill-rule="evenodd" fill-opacity="1"/>
<defs>
  <clipPath id="clip742">
    <rect x="195" y="47" width="2158" height="1386"/>
  </clipPath>
</defs>
<polyline clip-path="url(#clip742)" style="stroke:#000000; stroke-linecap:round; stroke-linejoin:round; stroke-width:2; stroke-opacity:0.1; fill:none" points="256.383,1431.82 256.383,47.2441 "/>
<polyline clip-path="url(#clip742)" style="stroke:#000000; stroke-linecap:round; stroke-linejoin:round; stroke-width:2; stroke-opacity:0.1; fill:none" points="592.709,1431.82 592.709,47.2441 "/>
<polyline clip-path="url(#clip742)" style="stroke:#000000; stroke-linecap:round; stroke-linejoin:round; stroke-width:2; stroke-opacity:0.1; fill:none" points="929.036,1431.82 929.036,47.2441 "/>
<polyline clip-path="url(#clip742)" style="stroke:#000000; stroke-linecap:round; stroke-linejoin:round; stroke-width:2; stroke-opacity:0.1; fill:none" points="1265.36,1431.82 1265.36,47.2441 "/>
<polyline clip-path="url(#clip742)" style="stroke:#000000; stroke-linecap:round; stroke-linejoin:round; stroke-width:2; stroke-opacity:0.1; fill:none" points="1601.69,1431.82 1601.69,47.2441 "/>
<polyline clip-path="url(#clip742)" style="stroke:#000000; stroke-linecap:round; stroke-linejoin:round; stroke-width:2; stroke-opacity:0.1; fill:none" points="1938.01,1431.82 1938.01,47.2441 "/>
<polyline clip-path="url(#clip742)" style="stroke:#000000; stroke-linecap:round; stroke-linejoin:round; stroke-width:2; stroke-opacity:0.1; fill:none" points="2274.34,1431.82 2274.34,47.2441 "/>
<polyline clip-path="url(#clip742)" style="stroke:#000000; stroke-linecap:round; stroke-linejoin:round; stroke-width:2; stroke-opacity:0.1; fill:none" points="195.324,1309.42 2352.76,1309.42 "/>
<polyline clip-path="url(#clip742)" style="stroke:#000000; stroke-linecap:round; stroke-linejoin:round; stroke-width:2; stroke-opacity:0.1; fill:none" points="195.324,893.182 2352.76,893.182 "/>
<polyline clip-path="url(#clip742)" style="stroke:#000000; stroke-linecap:round; stroke-linejoin:round; stroke-width:2; stroke-opacity:0.1; fill:none" points="195.324,476.947 2352.76,476.947 "/>
<polyline clip-path="url(#clip742)" style="stroke:#000000; stroke-linecap:round; stroke-linejoin:round; stroke-width:2; stroke-opacity:0.1; fill:none" points="195.324,60.7127 2352.76,60.7127 "/>
<polyline clip-path="url(#clip740)" style="stroke:#000000; stroke-linecap:round; stroke-linejoin:round; stroke-width:4; stroke-opacity:1; fill:none" points="195.324,1431.82 2352.76,1431.82 "/>
<polyline clip-path="url(#clip740)" style="stroke:#000000; stroke-linecap:round; stroke-linejoin:round; stroke-width:4; stroke-opacity:1; fill:none" points="256.383,1431.82 256.383,1412.92 "/>
<polyline clip-path="url(#clip740)" style="stroke:#000000; stroke-linecap:round; stroke-linejoin:round; stroke-width:4; stroke-opacity:1; fill:none" points="592.709,1431.82 592.709,1412.92 "/>
<polyline clip-path="url(#clip740)" style="stroke:#000000; stroke-linecap:round; stroke-linejoin:round; stroke-width:4; stroke-opacity:1; fill:none" points="929.036,1431.82 929.036,1412.92 "/>
<polyline clip-path="url(#clip740)" style="stroke:#000000; stroke-linecap:round; stroke-linejoin:round; stroke-width:4; stroke-opacity:1; fill:none" points="1265.36,1431.82 1265.36,1412.92 "/>
<polyline clip-path="url(#clip740)" style="stroke:#000000; stroke-linecap:round; stroke-linejoin:round; stroke-width:4; stroke-opacity:1; fill:none" points="1601.69,1431.82 1601.69,1412.92 "/>
<polyline clip-path="url(#clip740)" style="stroke:#000000; stroke-linecap:round; stroke-linejoin:round; stroke-width:4; stroke-opacity:1; fill:none" points="1938.01,1431.82 1938.01,1412.92 "/>
<polyline clip-path="url(#clip740)" style="stroke:#000000; stroke-linecap:round; stroke-linejoin:round; stroke-width:4; stroke-opacity:1; fill:none" points="2274.34,1431.82 2274.34,1412.92 "/>
<path clip-path="url(#clip740)" d="M256.383 1462.74 Q252.772 1462.74 250.943 1466.3 Q249.138 1469.84 249.138 1476.97 Q249.138 1484.08 250.943 1487.65 Q252.772 1491.19 256.383 1491.19 Q260.017 1491.19 261.823 1487.65 Q263.651 1484.08 263.651 1476.97 Q263.651 1469.84 261.823 1466.3 Q260.017 1462.74 256.383 1462.74 M256.383 1459.03 Q262.193 1459.03 265.249 1463.64 Q268.327 1468.22 268.327 1476.97 Q268.327 1485.7 265.249 1490.31 Q262.193 1494.89 256.383 1494.89 Q250.573 1494.89 247.494 1490.31 Q244.439 1485.7 244.439 1476.97 Q244.439 1468.22 247.494 1463.64 Q250.573 1459.03 256.383 1459.03 Z" fill="#000000" fill-rule="nonzero" fill-opacity="1" /><path clip-path="url(#clip740)" d="M567.397 1490.28 L575.036 1490.28 L575.036 1463.92 L566.726 1465.59 L566.726 1461.33 L574.99 1459.66 L579.665 1459.66 L579.665 1490.28 L587.304 1490.28 L587.304 1494.22 L567.397 1494.22 L567.397 1490.28 Z" fill="#000000" fill-rule="nonzero" fill-opacity="1" /><path clip-path="url(#clip740)" d="M606.749 1462.74 Q603.138 1462.74 601.309 1466.3 Q599.503 1469.84 599.503 1476.97 Q599.503 1484.08 601.309 1487.65 Q603.138 1491.19 606.749 1491.19 Q610.383 1491.19 612.188 1487.65 Q614.017 1484.08 614.017 1476.97 Q614.017 1469.84 612.188 1466.3 Q610.383 1462.74 606.749 1462.74 M606.749 1459.03 Q612.559 1459.03 615.614 1463.64 Q618.693 1468.22 618.693 1476.97 Q618.693 1485.7 615.614 1490.31 Q612.559 1494.89 606.749 1494.89 Q600.938 1494.89 597.86 1490.31 Q594.804 1485.7 594.804 1476.97 Q594.804 1468.22 597.86 1463.64 Q600.938 1459.03 606.749 1459.03 Z" fill="#000000" fill-rule="nonzero" fill-opacity="1" /><path clip-path="url(#clip740)" d="M907.809 1490.28 L924.128 1490.28 L924.128 1494.22 L902.184 1494.22 L902.184 1490.28 Q904.846 1487.53 909.429 1482.9 Q914.036 1478.25 915.216 1476.91 Q917.462 1474.38 918.341 1472.65 Q919.244 1470.89 919.244 1469.2 Q919.244 1466.44 917.3 1464.71 Q915.378 1462.97 912.276 1462.97 Q910.077 1462.97 907.624 1463.73 Q905.193 1464.5 902.415 1466.05 L902.415 1461.33 Q905.24 1460.19 907.693 1459.61 Q910.147 1459.03 912.184 1459.03 Q917.554 1459.03 920.749 1461.72 Q923.943 1464.41 923.943 1468.9 Q923.943 1471.03 923.133 1472.95 Q922.346 1474.84 920.239 1477.44 Q919.661 1478.11 916.559 1481.33 Q913.457 1484.52 907.809 1490.28 Z" fill="#000000" fill-rule="nonzero" fill-opacity="1" /><path clip-path="url(#clip740)" d="M943.943 1462.74 Q940.332 1462.74 938.503 1466.3 Q936.698 1469.84 936.698 1476.97 Q936.698 1484.08 938.503 1487.65 Q940.332 1491.19 943.943 1491.19 Q947.577 1491.19 949.383 1487.65 Q951.211 1484.08 951.211 1476.97 Q951.211 1469.84 949.383 1466.3 Q947.577 1462.74 943.943 1462.74 M943.943 1459.03 Q949.753 1459.03 952.809 1463.64 Q955.887 1468.22 955.887 1476.97 Q955.887 1485.7 952.809 1490.31 Q949.753 1494.89 943.943 1494.89 Q938.133 1494.89 935.054 1490.31 Q931.999 1485.7 931.999 1476.97 Q931.999 1468.22 935.054 1463.64 Q938.133 1459.03 943.943 1459.03 Z" fill="#000000" fill-rule="nonzero" fill-opacity="1" /><path clip-path="url(#clip740)" d="M1254.2 1475.59 Q1257.56 1476.3 1259.44 1478.57 Q1261.33 1480.84 1261.33 1484.17 Q1261.33 1489.29 1257.82 1492.09 Q1254.3 1494.89 1247.82 1494.89 Q1245.64 1494.89 1243.33 1494.45 Q1241.03 1494.03 1238.58 1493.18 L1238.58 1488.66 Q1240.52 1489.8 1242.84 1490.38 Q1245.15 1490.96 1247.68 1490.96 Q1252.08 1490.96 1254.37 1489.22 Q1256.68 1487.48 1256.68 1484.17 Q1256.68 1481.12 1254.53 1479.41 Q1252.4 1477.67 1248.58 1477.67 L1244.55 1477.67 L1244.55 1473.83 L1248.76 1473.83 Q1252.21 1473.83 1254.04 1472.46 Q1255.87 1471.07 1255.87 1468.48 Q1255.87 1465.82 1253.97 1464.41 Q1252.1 1462.97 1248.58 1462.97 Q1246.66 1462.97 1244.46 1463.39 Q1242.26 1463.8 1239.62 1464.68 L1239.62 1460.52 Q1242.28 1459.78 1244.6 1459.41 Q1246.94 1459.03 1249 1459.03 Q1254.32 1459.03 1257.42 1461.47 Q1260.52 1463.87 1260.52 1467.99 Q1260.52 1470.86 1258.88 1472.85 Q1257.24 1474.82 1254.2 1475.59 Z" fill="#000000" fill-rule="nonzero" fill-opacity="1" /><path clip-path="url(#clip740)" d="M1280.2 1462.74 Q1276.59 1462.74 1274.76 1466.3 Q1272.95 1469.84 1272.95 1476.97 Q1272.95 1484.08 1274.76 1487.65 Q1276.59 1491.19 1280.2 1491.19 Q1283.83 1491.19 1285.64 1487.65 Q1287.47 1484.08 1287.47 1476.97 Q1287.47 1469.84 1285.64 1466.3 Q1283.83 1462.74 1280.2 1462.74 M1280.2 1459.03 Q1286.01 1459.03 1289.07 1463.64 Q1292.14 1468.22 1292.14 1476.97 Q1292.14 1485.7 1289.07 1490.31 Q1286.01 1494.89 1280.2 1494.89 Q1274.39 1494.89 1271.31 1490.31 Q1268.26 1485.7 1268.26 1476.97 Q1268.26 1468.22 1271.31 1463.64 Q1274.39 1459.03 1280.2 1459.03 Z" fill="#000000" fill-rule="nonzero" fill-opacity="1" /><path clip-path="url(#clip740)" d="M1589.86 1463.73 L1578.05 1482.18 L1589.86 1482.18 L1589.86 1463.73 M1588.63 1459.66 L1594.51 1459.66 L1594.51 1482.18 L1599.44 1482.18 L1599.44 1486.07 L1594.51 1486.07 L1594.51 1494.22 L1589.86 1494.22 L1589.86 1486.07 L1574.26 1486.07 L1574.26 1481.56 L1588.63 1459.66 Z" fill="#000000" fill-rule="nonzero" fill-opacity="1" /><path clip-path="url(#clip740)" d="M1617.17 1462.74 Q1613.56 1462.74 1611.73 1466.3 Q1609.93 1469.84 1609.93 1476.97 Q1609.93 1484.08 1611.73 1487.65 Q1613.56 1491.19 1617.17 1491.19 Q1620.81 1491.19 1622.61 1487.65 Q1624.44 1484.08 1624.44 1476.97 Q1624.44 1469.84 1622.61 1466.3 Q1620.81 1462.74 1617.17 1462.74 M1617.17 1459.03 Q1622.98 1459.03 1626.04 1463.64 Q1629.12 1468.22 1629.12 1476.97 Q1629.12 1485.7 1626.04 1490.31 Q1622.98 1494.89 1617.17 1494.89 Q1611.36 1494.89 1608.29 1490.31 Q1605.23 1485.7 1605.23 1476.97 Q1605.23 1468.22 1608.29 1463.64 Q1611.36 1459.03 1617.17 1459.03 Z" fill="#000000" fill-rule="nonzero" fill-opacity="1" /><path clip-path="url(#clip740)" d="M1912.71 1459.66 L1931.07 1459.66 L1931.07 1463.6 L1917 1463.6 L1917 1472.07 Q1918.01 1471.72 1919.03 1471.56 Q1920.05 1471.37 1921.07 1471.37 Q1926.86 1471.37 1930.24 1474.54 Q1933.62 1477.72 1933.62 1483.13 Q1933.62 1488.71 1930.14 1491.81 Q1926.67 1494.89 1920.35 1494.89 Q1918.18 1494.89 1915.91 1494.52 Q1913.66 1494.15 1911.26 1493.41 L1911.26 1488.71 Q1913.34 1489.84 1915.56 1490.4 Q1917.78 1490.96 1920.26 1490.96 Q1924.26 1490.96 1926.6 1488.85 Q1928.94 1486.74 1928.94 1483.13 Q1928.94 1479.52 1926.6 1477.41 Q1924.26 1475.31 1920.26 1475.31 Q1918.39 1475.31 1916.51 1475.72 Q1914.66 1476.14 1912.71 1477.02 L1912.71 1459.66 Z" fill="#000000" fill-rule="nonzero" fill-opacity="1" /><path clip-path="url(#clip740)" d="M1952.83 1462.74 Q1949.22 1462.74 1947.39 1466.3 Q1945.58 1469.84 1945.58 1476.97 Q1945.58 1484.08 1947.39 1487.65 Q1949.22 1491.19 1952.83 1491.19 Q1956.46 1491.19 1958.27 1487.65 Q1960.1 1484.08 1960.1 1476.97 Q1960.1 1469.84 1958.27 1466.3 Q1956.46 1462.74 1952.83 1462.74 M1952.83 1459.03 Q1958.64 1459.03 1961.7 1463.64 Q1964.77 1468.22 1964.77 1476.97 Q1964.77 1485.7 1961.7 1490.31 Q1958.64 1494.89 1952.83 1494.89 Q1947.02 1494.89 1943.94 1490.31 Q1940.89 1485.7 1940.89 1476.97 Q1940.89 1468.22 1943.94 1463.64 Q1947.02 1459.03 1952.83 1459.03 Z" fill="#000000" fill-rule="nonzero" fill-opacity="1" /><path clip-path="url(#clip740)" d="M2259.75 1475.08 Q2256.6 1475.08 2254.75 1477.23 Q2252.92 1479.38 2252.92 1483.13 Q2252.92 1486.86 2254.75 1489.03 Q2256.6 1491.19 2259.75 1491.19 Q2262.89 1491.19 2264.72 1489.03 Q2266.57 1486.86 2266.57 1483.13 Q2266.57 1479.38 2264.72 1477.23 Q2262.89 1475.08 2259.75 1475.08 M2269.03 1460.42 L2269.03 1464.68 Q2267.27 1463.85 2265.46 1463.41 Q2263.68 1462.97 2261.92 1462.97 Q2257.29 1462.97 2254.84 1466.09 Q2252.41 1469.22 2252.06 1475.54 Q2253.43 1473.53 2255.49 1472.46 Q2257.55 1471.37 2260.02 1471.37 Q2265.23 1471.37 2268.24 1474.54 Q2271.27 1477.69 2271.27 1483.13 Q2271.27 1488.46 2268.13 1491.67 Q2264.98 1494.89 2259.75 1494.89 Q2253.75 1494.89 2250.58 1490.31 Q2247.41 1485.7 2247.41 1476.97 Q2247.41 1468.78 2251.3 1463.92 Q2255.19 1459.03 2261.74 1459.03 Q2263.5 1459.03 2265.28 1459.38 Q2267.08 1459.73 2269.03 1460.42 Z" fill="#000000" fill-rule="nonzero" fill-opacity="1" /><path clip-path="url(#clip740)" d="M2289.33 1462.74 Q2285.72 1462.74 2283.89 1466.3 Q2282.08 1469.84 2282.08 1476.97 Q2282.08 1484.08 2283.89 1487.65 Q2285.72 1491.19 2289.33 1491.19 Q2292.96 1491.19 2294.77 1487.65 Q2296.6 1484.08 2296.6 1476.97 Q2296.6 1469.84 2294.77 1466.3 Q2292.96 1462.74 2289.33 1462.74 M2289.33 1459.03 Q2295.14 1459.03 2298.2 1463.64 Q2301.27 1468.22 2301.27 1476.97 Q2301.27 1485.7 2298.2 1490.31 Q2295.14 1494.89 2289.33 1494.89 Q2283.52 1494.89 2280.44 1490.31 Q2277.39 1485.7 2277.39 1476.97 Q2277.39 1468.22 2280.44 1463.64 Q2283.52 1459.03 2289.33 1459.03 Z" fill="#000000" fill-rule="nonzero" fill-opacity="1" /><path clip-path="url(#clip740)" d="M1205.37 1527.44 L1211.02 1527.44 L1220.68 1541.89 L1230.39 1527.44 L1236.05 1527.44 L1223.55 1546.11 L1236.88 1566.32 L1231.23 1566.32 L1220.29 1549.78 L1209.27 1566.32 L1203.6 1566.32 L1217.48 1545.56 L1205.37 1527.44 Z" fill="#000000" fill-rule="nonzero" fill-opacity="1" /><path clip-path="url(#clip740)" d="M1272.03 1525.85 Q1268.54 1531.84 1266.85 1537.7 Q1265.16 1543.56 1265.16 1549.57 Q1265.16 1555.59 1266.85 1561.5 Q1268.57 1567.38 1272.03 1573.35 L1267.87 1573.35 Q1263.96 1567.23 1262.01 1561.32 Q1260.08 1555.4 1260.08 1549.57 Q1260.08 1543.76 1262.01 1537.88 Q1263.94 1531.99 1267.87 1525.85 L1272.03 1525.85 Z" fill="#000000" fill-rule="nonzero" fill-opacity="1" /><path clip-path="url(#clip740)" d="M1304.04 1542.75 Q1305.84 1539.52 1308.34 1537.98 Q1310.84 1536.45 1314.22 1536.45 Q1318.78 1536.45 1321.25 1539.65 Q1323.73 1542.83 1323.73 1548.71 L1323.73 1566.32 L1318.91 1566.32 L1318.91 1548.87 Q1318.91 1544.68 1317.42 1542.64 Q1315.94 1540.61 1312.89 1540.61 Q1309.17 1540.61 1307.01 1543.09 Q1304.85 1545.56 1304.85 1549.83 L1304.85 1566.32 L1300.03 1566.32 L1300.03 1548.87 Q1300.03 1544.65 1298.54 1542.64 Q1297.06 1540.61 1293.96 1540.61 Q1290.29 1540.61 1288.13 1543.11 Q1285.97 1545.59 1285.97 1549.83 L1285.97 1566.32 L1281.15 1566.32 L1281.15 1537.15 L1285.97 1537.15 L1285.97 1541.68 Q1287.61 1539 1289.9 1537.72 Q1292.19 1536.45 1295.34 1536.45 Q1298.52 1536.45 1300.73 1538.06 Q1302.97 1539.68 1304.04 1542.75 Z" fill="#000000" fill-rule="nonzero" fill-opacity="1" /><path clip-path="url(#clip740)" d="M1332.53 1525.85 L1336.7 1525.85 Q1340.6 1531.99 1342.53 1537.88 Q1344.48 1543.76 1344.48 1549.57 Q1344.48 1555.4 1342.53 1561.32 Q1340.6 1567.23 1336.7 1573.35 L1332.53 1573.35 Q1335.99 1567.38 1337.69 1561.5 Q1339.4 1555.59 1339.4 1549.57 Q1339.4 1543.56 1337.69 1537.7 Q1335.99 1531.84 1332.53 1525.85 Z" fill="#000000" fill-rule="nonzero" fill-opacity="1" /><polyline clip-path="url(#clip740)" style="stroke:#000000; stroke-linecap:round; stroke-linejoin:round; stroke-width:4; stroke-opacity:1; fill:none" points="195.324,1431.82 195.324,47.2441 "/>
<polyline clip-path="url(#clip740)" style="stroke:#000000; stroke-linecap:round; stroke-linejoin:round; stroke-width:4; stroke-opacity:1; fill:none" points="195.324,1309.42 214.221,1309.42 "/>
<polyline clip-path="url(#clip740)" style="stroke:#000000; stroke-linecap:round; stroke-linejoin:round; stroke-width:4; stroke-opacity:1; fill:none" points="195.324,893.182 214.221,893.182 "/>
<polyline clip-path="url(#clip740)" style="stroke:#000000; stroke-linecap:round; stroke-linejoin:round; stroke-width:4; stroke-opacity:1; fill:none" points="195.324,476.947 214.221,476.947 "/>
<polyline clip-path="url(#clip740)" style="stroke:#000000; stroke-linecap:round; stroke-linejoin:round; stroke-width:4; stroke-opacity:1; fill:none" points="195.324,60.7127 214.221,60.7127 "/>
<path clip-path="url(#clip740)" d="M147.379 1295.22 Q143.768 1295.22 141.939 1298.78 Q140.134 1302.32 140.134 1309.45 Q140.134 1316.56 141.939 1320.12 Q143.768 1323.66 147.379 1323.66 Q151.013 1323.66 152.819 1320.12 Q154.648 1316.56 154.648 1309.45 Q154.648 1302.32 152.819 1298.78 Q151.013 1295.22 147.379 1295.22 M147.379 1291.51 Q153.189 1291.51 156.245 1296.12 Q159.324 1300.7 159.324 1309.45 Q159.324 1318.18 156.245 1322.78 Q153.189 1327.37 147.379 1327.37 Q141.569 1327.37 138.49 1322.78 Q135.435 1318.18 135.435 1309.45 Q135.435 1300.7 138.49 1296.12 Q141.569 1291.51 147.379 1291.51 Z" fill="#000000" fill-rule="nonzero" fill-opacity="1" /><path clip-path="url(#clip740)" d="M108.028 906.527 L115.666 906.527 L115.666 880.161 L107.356 881.828 L107.356 877.569 L115.62 875.902 L120.296 875.902 L120.296 906.527 L127.935 906.527 L127.935 910.462 L108.028 910.462 L108.028 906.527 Z" fill="#000000" fill-rule="nonzero" fill-opacity="1" /><path clip-path="url(#clip740)" d="M147.379 878.981 Q143.768 878.981 141.939 882.545 Q140.134 886.087 140.134 893.217 Q140.134 900.323 141.939 903.888 Q143.768 907.43 147.379 907.43 Q151.013 907.43 152.819 903.888 Q154.648 900.323 154.648 893.217 Q154.648 886.087 152.819 882.545 Q151.013 878.981 147.379 878.981 M147.379 875.277 Q153.189 875.277 156.245 879.883 Q159.324 884.467 159.324 893.217 Q159.324 901.943 156.245 906.55 Q153.189 911.133 147.379 911.133 Q141.569 911.133 138.49 906.55 Q135.435 901.943 135.435 893.217 Q135.435 884.467 138.49 879.883 Q141.569 875.277 147.379 875.277 Z" fill="#000000" fill-rule="nonzero" fill-opacity="1" /><path clip-path="url(#clip740)" d="M111.245 490.292 L127.564 490.292 L127.564 494.227 L105.62 494.227 L105.62 490.292 Q108.282 487.538 112.865 482.908 Q117.472 478.255 118.652 476.913 Q120.898 474.389 121.777 472.653 Q122.68 470.894 122.68 469.204 Q122.68 466.45 120.736 464.714 Q118.815 462.977 115.713 462.977 Q113.514 462.977 111.06 463.741 Q108.629 464.505 105.852 466.056 L105.852 461.334 Q108.676 460.2 111.129 459.621 Q113.583 459.042 115.62 459.042 Q120.99 459.042 124.185 461.727 Q127.379 464.413 127.379 468.903 Q127.379 471.033 126.569 472.954 Q125.782 474.852 123.676 477.445 Q123.097 478.116 119.995 481.334 Q116.893 484.528 111.245 490.292 Z" fill="#000000" fill-rule="nonzero" fill-opacity="1" /><path clip-path="url(#clip740)" d="M147.379 462.746 Q143.768 462.746 141.939 466.311 Q140.134 469.852 140.134 476.982 Q140.134 484.088 141.939 487.653 Q143.768 491.195 147.379 491.195 Q151.013 491.195 152.819 487.653 Q154.648 484.088 154.648 476.982 Q154.648 469.852 152.819 466.311 Q151.013 462.746 147.379 462.746 M147.379 459.042 Q153.189 459.042 156.245 463.649 Q159.324 468.232 159.324 476.982 Q159.324 485.709 156.245 490.315 Q153.189 494.899 147.379 494.899 Q141.569 494.899 138.49 490.315 Q135.435 485.709 135.435 476.982 Q135.435 468.232 138.49 463.649 Q141.569 459.042 147.379 459.042 Z" fill="#000000" fill-rule="nonzero" fill-opacity="1" /><path clip-path="url(#clip740)" d="M121.384 59.3585 Q124.74 60.0761 126.615 62.3446 Q128.514 64.6131 128.514 67.9464 Q128.514 73.0621 124.995 75.863 Q121.477 78.664 114.995 78.664 Q112.819 78.664 110.504 78.2241 Q108.213 77.8075 105.759 76.951 L105.759 72.4371 Q107.703 73.5714 110.018 74.1501 Q112.333 74.7288 114.856 74.7288 Q119.254 74.7288 121.546 72.9927 Q123.861 71.2566 123.861 67.9464 Q123.861 64.8909 121.708 63.1779 Q119.578 61.4418 115.759 61.4418 L111.731 61.4418 L111.731 57.5993 L115.944 57.5993 Q119.393 57.5993 121.222 56.2335 Q123.051 54.8446 123.051 52.2521 Q123.051 49.59 121.152 48.178 Q119.277 46.7428 115.759 46.7428 Q113.838 46.7428 111.639 47.1595 Q109.44 47.5762 106.801 48.4558 L106.801 44.2891 Q109.463 43.5484 111.778 43.178 Q114.115 42.8077 116.176 42.8077 Q121.5 42.8077 124.602 45.2382 Q127.703 47.6456 127.703 51.766 Q127.703 54.6363 126.06 56.627 Q124.416 58.5946 121.384 59.3585 Z" fill="#000000" fill-rule="nonzero" fill-opacity="1" /><path clip-path="url(#clip740)" d="M147.379 46.5113 Q143.768 46.5113 141.939 50.0761 Q140.134 53.6178 140.134 60.7474 Q140.134 67.8538 141.939 71.4186 Q143.768 74.9603 147.379 74.9603 Q151.013 74.9603 152.819 71.4186 Q154.648 67.8538 154.648 60.7474 Q154.648 53.6178 152.819 50.0761 Q151.013 46.5113 147.379 46.5113 M147.379 42.8077 Q153.189 42.8077 156.245 47.4141 Q159.324 51.9974 159.324 60.7474 Q159.324 69.4742 156.245 74.0806 Q153.189 78.664 147.379 78.664 Q141.569 78.664 138.49 74.0806 Q135.435 69.4742 135.435 60.7474 Q135.435 51.9974 138.49 47.4141 Q141.569 42.8077 147.379 42.8077 Z" fill="#000000" fill-rule="nonzero" fill-opacity="1" /><path clip-path="url(#clip740)" d="M19.0762 808.841 L19.0762 803.19 L35.0657 792.409 L19.0762 781.706 L19.0762 776.055 L39.4406 789.805 L57.9562 789.805 L57.9562 795.092 L39.4406 795.092 L19.0762 808.841 Z" fill="#000000" fill-rule="nonzero" fill-opacity="1" /><path clip-path="url(#clip740)" d="M17.4876 742.67 Q23.4772 746.16 29.3365 747.852 Q35.1959 749.545 41.2115 749.545 Q47.227 749.545 53.1385 747.852 Q59.0239 746.133 64.9874 742.67 L64.9874 746.837 Q58.8676 750.743 52.9562 752.696 Q47.0448 754.623 41.2115 754.623 Q35.4042 754.623 29.5188 752.696 Q23.6334 750.769 17.4876 746.837 L17.4876 742.67 Z" fill="#000000" fill-rule="nonzero" fill-opacity="1" /><path clip-path="url(#clip740)" d="M34.3886 710.665 Q31.1594 708.868 29.623 706.368 Q28.0865 703.868 28.0865 700.483 Q28.0865 695.925 31.2896 693.451 Q34.4667 690.978 40.3521 690.978 L57.9562 690.978 L57.9562 695.795 L40.5083 695.795 Q36.3156 695.795 34.2844 697.28 Q32.2532 698.764 32.2532 701.811 Q32.2532 705.535 34.7271 707.696 Q37.2011 709.858 41.4719 709.858 L57.9562 709.858 L57.9562 714.675 L40.5083 714.675 Q36.2896 714.675 34.2844 716.16 Q32.2532 717.644 32.2532 720.743 Q32.2532 724.415 34.7532 726.576 Q37.2271 728.738 41.4719 728.738 L57.9562 728.738 L57.9562 733.555 L28.7896 733.555 L28.7896 728.738 L33.3209 728.738 Q30.6386 727.097 29.3626 724.805 Q28.0865 722.514 28.0865 719.363 Q28.0865 716.186 29.7011 713.972 Q31.3157 711.733 34.3886 710.665 Z" fill="#000000" fill-rule="nonzero" fill-opacity="1" /><path clip-path="url(#clip740)" d="M17.4876 682.176 L17.4876 678.009 Q23.6334 674.103 29.5188 672.176 Q35.4042 670.222 41.2115 670.222 Q47.0448 670.222 52.9562 672.176 Q58.8676 674.103 64.9874 678.009 L64.9874 682.176 Q59.0239 678.712 53.1385 677.019 Q47.227 675.301 41.2115 675.301 Q35.1959 675.301 29.3365 677.019 Q23.4772 678.712 17.4876 682.176 Z" fill="#000000" fill-rule="nonzero" fill-opacity="1" /><polyline clip-path="url(#clip742)" style="stroke:#009af9; stroke-linecap:round; stroke-linejoin:round; stroke-width:4; stroke-opacity:1; fill:none" points="256.383,1309.42 269.059,1309.39 281.734,1309.33 294.41,1309.24 307.085,1309.12 319.76,1308.97 332.435,1308.8 345.109,1308.59 357.783,1308.35 370.457,1308.09 383.13,1307.79 395.803,1307.47 408.476,1307.11 421.148,1306.73 433.819,1306.31 446.489,1305.87 459.159,1305.4 471.828,1304.89 484.497,1304.36 497.164,1303.8 509.831,1303.21 522.496,1302.59 535.161,1301.94 547.825,1301.26 560.487,1300.55 573.149,1299.81 585.809,1299.04 598.469,1298.24 611.127,1297.42 623.783,1296.56 636.439,1295.67 649.093,1294.76 661.745,1293.81 674.396,1292.84 687.046,1291.83 699.694,1290.8 712.341,1289.74 724.985,1288.64 737.628,1287.52 750.27,1286.37 762.909,1285.19 775.547,1283.98 788.183,1282.74 800.817,1281.47 813.449,1280.17 826.079,1278.84 838.707,1277.48 851.333,1276.09 863.957,1274.68 876.579,1273.23 889.198,1271.75 901.815,1270.25 914.43,1268.71 927.043,1267.15 939.653,1265.56 952.26,1263.93 964.865,1262.28 977.468,1260.6 990.068,1258.89 1002.67,1257.15 1015.26,1255.38 1027.85,1253.58 1040.44,1251.75 1053.03,1249.89 1065.61,1248 1078.19,1246.09 1090.77,1244.14 1103.34,1242.17 1115.92,1240.16 1128.48,1238.13 1141.05,1236.06 1153.61,1233.97 1166.17,1231.85 1178.73,1229.7 1191.28,1227.52 1203.83,1225.31 1216.37,1223.07 1228.92,1220.8 1241.46,1218.5 1253.99,1216.18 1266.52,1213.82 1279.05,1211.44 1291.58,1209.02 1304.1,1206.58 1316.61,1204.11 1329.13,1201.6 1341.64,1199.07 1354.14,1196.51 1366.64,1193.92 1379.14,1191.3 1391.64,1188.66 1404.13,1185.98 1416.61,1183.27 1429.09,1180.54 1441.57,1177.77 1454.04,1174.98 1466.51,1172.16 1478.98,1169.31 1491.44,1166.43 1503.89,1163.52 1516.34,1160.58 1528.79,1157.61 1541.23,1154.61 1553.67,1151.59 1566.1,1148.53 1578.53,1145.45 1590.95,1142.34 1603.37,1139.19 1615.79,1136.02 1628.2,1132.82 1640.6,1129.6 1653,1126.34 1665.39,1123.05 1677.78,1119.74 1690.17,1116.39 1702.55,1113.02 1714.87,1109.36 1727.14,1105.41 1739.35,1101.18 1751.48,1096.66 1763.55,1091.86 1775.55,1086.78 1787.46,1081.42 1799.29,1075.79 1811.03,1069.88 1822.68,1063.69 1834.23,1057.24 1845.69,1050.52 1857.03,1043.53 1868.27,1036.28 1879.4,1028.77 1890.41,1021 1901.31,1012.97 1912.07,1004.7 1922.71,996.169 1933.22,987.395 1943.59,978.377 1953.82,969.12 1963.92,959.625 1973.86,949.897 1983.65,939.939 1993.29,929.754 2002.78,919.346 2012.1,908.718 2021.26,897.876 2030.26,886.821 2039.08,875.559 2047.73,864.093 2056.21,852.427 2064.5,840.566 2072.61,828.514 2080.54,816.274 2088.28,803.852 2095.83,791.252 2103.19,778.477 2110.35,765.534 2117.32,752.425 2124.08,739.157 2130.64,725.733 2136.99,712.159 2143.14,698.439 2149.07,684.578 2154.8,670.582 2160.31,656.454 2165.6,642.2 2170.68,627.825 2175.53,613.335 2180.17,598.734 2184.58,584.027 2188.76,569.221 2192.73,554.319 2196.46,539.327 2199.96,524.251 2203.24,509.096 2206.28,493.868 2209.09,478.571 2211.67,463.211 2214.01,447.794 2216.12,432.326 2217.99,416.81 2219.62,401.254 2221.02,385.663 2222.18,370.041 2223.1,354.396 2223.79,338.731 2224.23,323.054 2224.44,307.369 2224.41,291.681 2224.14,275.998 2223.63,260.323 2222.88,244.663 2221.89,229.024 2220.67,213.41 2219.21,197.827 2217.51,182.281 2215.57,166.778 2213.4,151.323 2211,135.921 2208.36,120.577 2205.48,105.298 "/>
<polyline clip-path="url(#clip742)" style="stroke:#e26f46; stroke-linecap:round; stroke-linejoin:round; stroke-width:12; stroke-opacity:1; fill:none" points="256.383,1309.42 269.059,1309.38 281.734,1309.31 294.409,1309.19 307.084,1309.04 319.759,1308.84 332.433,1308.6 345.106,1308.32 357.779,1308.01 370.451,1307.65 383.122,1307.24 395.792,1306.8 408.461,1306.32 421.129,1305.79 433.796,1305.23 446.461,1304.62 459.125,1303.98 471.787,1303.29 484.447,1302.56 497.106,1301.79 509.763,1300.98 522.418,1300.12 535.07,1299.23 547.721,1298.3 560.369,1297.32 573.016,1296.31 585.659,1295.25 598.3,1294.15 610.939,1293.01 623.574,1291.84 636.207,1290.62 648.837,1289.35 661.464,1288.05 674.088,1286.71 686.709,1285.33 699.326,1283.91 711.94,1282.44 724.55,1280.94 737.157,1279.39 749.76,1277.81 762.36,1276.18 774.955,1274.51 787.547,1272.81 800.134,1271.06 812.718,1269.27 825.297,1267.45 837.872,1265.58 850.442,1263.67 863.008,1261.73 875.569,1259.74 888.126,1257.71 900.678,1255.64 913.224,1253.54 925.766,1251.39 938.303,1249.2 950.835,1246.98 963.362,1244.71 975.883,1242.41 988.398,1240.06 1000.91,1237.68 1013.41,1235.25 1025.91,1232.79 1038.41,1230.29 1050.89,1227.75 1063.37,1225.17 1075.85,1222.55 1088.32,1219.89 1100.78,1217.19 1113.24,1214.46 1125.69,1211.68 1138.13,1208.87 1150.57,1206.02 1163,1203.13 1175.43,1200.2 1187.85,1197.23 1200.26,1194.23 1212.66,1191.19 1225.06,1188.1 1237.45,1184.98 1249.83,1181.83 1262.2,1178.63 1274.57,1175.4 1286.93,1172.13 1299.29,1168.82 1311.63,1165.48 1323.97,1162.09 1336.3,1158.67 1348.62,1155.21 1360.94,1151.72 1373.24,1148.19 1385.54,1144.62 1397.83,1141.01 1410.12,1137.39 1422.4,1133.74 1434.67,1130.06 1446.93,1126.37 1459.19,1122.64 1471.45,1118.89 1483.69,1115.12 1495.93,1111.32 1508.16,1107.5 1520.39,1103.65 1532.61,1099.78 1544.82,1095.88 1557.03,1091.96 1569.23,1088.01 1581.42,1084.04 1593.6,1080.04 1605.78,1076.02 1617.95,1071.97 1630.12,1067.9 1642.27,1063.8 1654.42,1059.67 1666.57,1055.52 1678.7,1051.35 1690.83,1047.15 1702,1042.98 1713.11,1038.61 1724.14,1034.05 1735.11,1029.28 1746.01,1024.31 1756.83,1019.12 1767.58,1013.73 1778.24,1008.12 1788.82,1002.31 1799.32,996.288 1809.73,990.066 1820.06,983.642 1830.3,977.021 1840.44,970.203 1850.5,963.191 1860.46,955.988 1870.33,948.595 1880.11,941.014 1889.79,933.248 1899.37,925.299 1908.85,917.168 1918.23,908.858 1927.51,900.371 1936.69,891.709 1945.77,882.873 1954.74,873.865 1963.61,864.687 1972.38,855.34 1981.04,845.827 1989.59,836.148 1998.04,826.306 2006.37,816.302 2014.6,806.136 2022.72,795.811 2030.73,785.328 2038.63,774.687 2046.41,763.89 2054.09,752.939 2061.65,741.833 2069.1,730.573 2076.43,719.162 2083.65,707.599 2090.75,695.885 2097.74,684.02 2104.61,672.007 2111.36,659.845 2118,647.535 2124.52,635.077 2130.92,622.472 2137.2,609.72 2143.36,596.821 2149.4,583.775 2155.32,570.583 2161.11,557.245 2166.79,543.759 2172.34,530.127 2177.76,516.347 2183.06,502.42 2188.23,488.345 2193.28,474.121 2198.19,459.749 2202.98,445.227 2207.63,430.554 2212.15,415.731 2216.53,400.756 2220.77,385.629 2224.88,370.348 2228.85,354.914 2232.67,339.325 2236.34,323.581 2239.87,307.68 2243.25,291.622 2246.48,275.407 2249.55,259.032 2252.46,242.499 2255.21,225.805 2257.8,208.95 2260.21,191.935 2262.46,174.757 2264.53,157.418 2266.43,139.915 2268.14,122.25 2269.66,104.422 2271,86.4302 "/>
<polyline clip-path="url(#clip742)" style="stroke:#808080; stroke-linecap:round; stroke-linejoin:round; stroke-width:4; stroke-opacity:1; fill:none" points="256.383,1309.42 268.932,1226.14 281.481,1226.08 294.029,1225.99 306.578,1225.88 319.126,1225.73 331.674,1225.55 344.222,1225.35 356.769,1225.11 369.316,1224.85 381.863,1224.56 394.409,1224.24 406.955,1223.89 419.5,1223.5 432.044,1223.09 444.588,1222.66 457.131,1222.19 469.674,1221.69 482.215,1221.16 494.756,1220.61 507.296,1220.02 519.835,1219.41 532.373,1218.76 544.91,1218.09 557.446,1217.39 569.981,1216.66 582.515,1215.9 595.048,1215.11 607.579,1214.29 620.109,1213.44 632.638,1212.56 645.165,1211.65 657.692,1210.72 670.216,1209.75 682.739,1208.76 695.261,1207.73 707.781,1206.68 720.299,1205.6 732.816,1204.49 745.331,1203.35 757.844,1202.18 770.355,1200.98 782.865,1199.75 795.373,1198.49 807.878,1197.21 820.382,1195.89 832.884,1194.55 845.384,1193.17 857.881,1191.77 870.377,1190.34 882.87,1188.88 895.361,1187.39 907.849,1185.87 920.336,1184.32 932.82,1182.74 945.301,1181.13 957.78,1179.5 970.257,1177.83 982.731,1176.14 995.202,1174.41 1007.67,1172.66 1020.14,1170.88 1032.6,1169.07 1045.06,1167.23 1057.52,1165.36 1069.97,1163.46 1082.42,1161.54 1094.87,1159.58 1107.32,1157.6 1119.76,1155.58 1132.2,1153.54 1144.64,1151.47 1157.07,1149.37 1169.5,1147.24 1181.93,1145.08 1194.35,1142.89 1206.77,1140.68 1219.19,1138.43 1231.6,1136.15 1244.01,1133.85 1256.42,1131.52 1268.82,1129.16 1281.22,1126.77 1293.62,1124.35 1306.01,1121.9 1318.4,1119.42 1330.78,1116.92 1343.16,1114.38 1355.54,1111.82 1367.91,1109.22 1380.28,1106.6 1392.65,1103.95 1405.01,1101.27 1417.36,1098.57 1429.72,1095.83 1442.07,1093.06 1454.41,1090.27 1466.75,1087.45 1479.08,1084.59 1491.42,1081.71 1503.74,1078.8 1516.06,1075.87 1528.38,1072.9 1540.7,1069.9 1553,1066.88 1565.31,1063.83 1577.61,1060.74 1589.9,1057.63 1602.19,1054.49 1614.48,1051.33 1626.76,1048.13 1639.03,1044.91 1651.3,1041.65 1663.57,1038.37 1675.83,1035.06 1688.08,1031.72 1699.17,1028.41 1710.21,1024.84 1721.19,1021.02 1732.12,1016.94 1742.97,1012.61 1753.76,1008.02 1764.48,1003.18 1775.12,998.098 1785.69,992.765 1796.17,987.186 1806.56,981.365 1816.86,975.302 1827.07,968.999 1837.18,962.46 1847.19,955.687 1857.1,948.681 1866.89,941.445 1876.58,933.983 1886.15,926.295 1895.6,918.386 1904.93,910.258 1914.13,901.914 1923.2,893.357 1932.15,884.59 1940.95,875.616 1949.62,866.438 1958.15,857.06 1966.53,847.484 1974.77,837.715 1982.86,827.755 1990.79,817.609 1998.57,807.279 2006.18,796.77 2013.64,786.085 2020.93,775.228 2028.06,764.203 2035.02,753.014 2041.8,741.664 2048.42,730.159 2054.85,718.501 2061.11,706.695 2067.19,694.745 2073.08,682.656 2078.79,670.432 2084.31,658.076 2089.64,645.594 2094.78,632.99 2099.73,620.269 2104.48,607.434 2109.04,594.491 2113.4,581.443 2117.56,568.297 2121.52,555.055 2125.27,541.724 2128.83,528.308 2132.18,514.811 2135.32,501.238 2138.25,487.595 2140.98,473.885 2143.5,460.114 2145.81,446.287 2147.9,432.409 2149.79,418.484 2151.46,404.518 2152.92,390.515 2154.17,376.481 2155.2,362.42 2156.02,348.338 2156.62,334.239 2157.01,320.128 2157.18,306.011 2157.14,291.892 2156.89,277.777 2156.42,263.67 2155.73,249.577 2154.83,235.502 2153.72,221.451 2152.39,207.428 2150.85,193.439 2149.1,179.488 2147.13,165.58 2144.95,151.721 2142.57,137.914 2139.97,124.166 "/>
<polyline clip-path="url(#clip742)" style="stroke:#808080; stroke-linecap:round; stroke-linejoin:round; stroke-width:4; stroke-opacity:1; fill:none" points="256.383,1309.42 269.185,1392.63 281.988,1392.57 294.79,1392.48 307.592,1392.37 320.394,1392.22 333.195,1392.04 345.996,1391.83 358.797,1391.59 371.598,1391.32 384.398,1391.02 397.198,1390.69 409.997,1390.34 422.795,1389.95 435.593,1389.53 448.39,1389.08 461.187,1388.61 473.983,1388.1 486.778,1387.56 499.572,1386.99 512.365,1386.4 525.158,1385.77 537.949,1385.11 550.739,1384.43 563.529,1383.71 576.317,1382.97 589.104,1382.19 601.89,1381.38 614.674,1380.55 627.457,1379.68 640.239,1378.79 653.02,1377.86 665.799,1376.91 678.577,1375.92 691.353,1374.91 704.127,1373.87 716.9,1372.79 729.672,1371.69 742.441,1370.55 755.209,1369.39 767.975,1368.2 780.739,1366.98 793.501,1365.72 806.262,1364.44 819.02,1363.13 831.777,1361.79 844.531,1360.42 857.283,1359.01 870.033,1357.58 882.781,1356.12 895.527,1354.63 908.27,1353.11 921.011,1351.56 933.749,1349.98 946.486,1348.37 959.219,1346.73 971.95,1345.07 984.679,1343.37 997.405,1341.64 1010.13,1339.88 1022.85,1338.09 1035.57,1336.28 1048.28,1334.43 1060.99,1332.55 1073.7,1330.65 1086.41,1328.71 1099.11,1326.75 1111.81,1324.75 1124.51,1322.73 1137.21,1320.67 1149.9,1318.59 1162.59,1316.47 1175.27,1314.33 1187.95,1312.16 1200.63,1309.96 1213.3,1307.73 1225.98,1305.46 1238.64,1303.17 1251.31,1300.85 1263.97,1298.5 1276.63,1296.12 1289.28,1293.72 1301.93,1291.28 1314.58,1288.81 1327.22,1286.31 1339.86,1283.78 1352.49,1281.23 1365.12,1278.64 1377.75,1276.03 1390.37,1273.38 1402.99,1270.71 1415.6,1268 1428.21,1265.27 1440.82,1262.51 1453.42,1259.72 1466.02,1256.9 1478.61,1254.05 1491.2,1251.17 1503.79,1248.26 1516.37,1245.32 1528.94,1242.35 1541.52,1239.35 1554.08,1236.33 1566.64,1233.27 1579.2,1230.19 1591.75,1227.07 1604.3,1223.93 1616.84,1220.75 1629.38,1217.55 1641.92,1214.32 1654.44,1211.06 1666.97,1207.77 1679.49,1204.45 1692,1201.1 1704.51,1197.73 1717.01,1194.32 1730.57,1190.31 1744.07,1185.98 1757.5,1181.34 1770.85,1176.38 1784.13,1171.12 1797.33,1165.54 1810.44,1159.66 1823.45,1153.48 1836.37,1146.99 1849.19,1140.2 1861.9,1133.12 1874.51,1125.74 1887,1118.06 1899.37,1110.1 1911.61,1101.85 1923.73,1093.32 1935.72,1084.5 1947.57,1075.41 1959.28,1066.04 1970.84,1056.4 1982.26,1046.5 1993.52,1036.33 2004.63,1025.89 2015.57,1015.2 2026.35,1004.26 2036.97,993.069 2047.41,981.632 2057.67,969.953 2067.75,958.036 2077.66,945.887 2087.37,933.509 2096.9,920.907 2106.23,908.085 2115.36,895.048 2124.29,881.8 2133.02,868.346 2141.55,854.69 2149.86,840.839 2157.97,826.796 2165.85,812.566 2173.52,798.156 2180.97,783.569 2188.2,768.81 2195.2,753.886 2201.97,738.802 2208.51,723.562 2214.81,708.173 2220.88,692.639 2226.72,676.966 2232.31,661.16 2237.67,645.227 2242.77,629.171 2247.64,612.999 2252.25,596.717 2256.62,580.33 2260.74,563.844 2264.61,547.265 2268.22,530.598 2271.58,513.851 2274.68,497.028 2277.53,480.135 2280.12,463.18 2282.45,446.167 2284.52,429.102 2286.33,411.993 2287.88,394.844 2289.16,377.662 2290.19,360.453 2290.96,343.224 2291.46,325.979 2291.7,308.726 2291.67,291.47 2291.39,274.218 2290.84,256.976 2290.03,239.749 2288.95,222.545 2287.62,205.369 2286.02,188.226 2284.17,171.124 2282.05,154.069 2279.67,137.065 2277.04,120.121 2274.15,103.24 2271,86.4302 "/>
<path clip-path="url(#clip740)" d="M267.238 352.597 L822.03 352.597 L822.03 93.3966 L267.238 93.3966  Z" fill="#ffffff" fill-rule="evenodd" fill-opacity="1"/>
<polyline clip-path="url(#clip740)" style="stroke:#000000; stroke-linecap:round; stroke-linejoin:round; stroke-width:4; stroke-opacity:1; fill:none" points="267.238,352.597 822.03,352.597 822.03,93.3966 267.238,93.3966 267.238,352.597 "/>
<polyline clip-path="url(#clip740)" style="stroke:#009af9; stroke-linecap:round; stroke-linejoin:round; stroke-width:4; stroke-opacity:1; fill:none" points="291.209,145.237 435.038,145.237 "/>
<path clip-path="url(#clip740)" d="M486.88 130.619 L486.88 135.549 Q484.519 133.35 481.834 132.262 Q479.172 131.174 476.162 131.174 Q470.237 131.174 467.088 134.808 Q463.94 138.42 463.94 145.271 Q463.94 152.1 467.088 155.734 Q470.237 159.345 476.162 159.345 Q479.172 159.345 481.834 158.257 Q484.519 157.169 486.88 154.97 L486.88 159.855 Q484.426 161.521 481.672 162.355 Q478.94 163.188 475.885 163.188 Q468.037 163.188 463.524 158.396 Q459.01 153.581 459.01 145.271 Q459.01 136.938 463.524 132.146 Q468.037 127.332 475.885 127.332 Q478.986 127.332 481.718 128.165 Q484.473 128.975 486.88 130.619 Z" fill="#000000" fill-rule="nonzero" fill-opacity="1" /><path clip-path="url(#clip740)" d="M516.093 148.489 L516.093 150.572 L496.51 150.572 Q496.787 154.97 499.148 157.285 Q501.533 159.577 505.769 159.577 Q508.222 159.577 510.514 158.975 Q512.829 158.373 515.097 157.169 L515.097 161.197 Q512.806 162.169 510.398 162.679 Q507.991 163.188 505.514 163.188 Q499.31 163.188 495.676 159.577 Q492.065 155.966 492.065 149.808 Q492.065 143.443 495.491 139.716 Q498.94 135.966 504.773 135.966 Q510.005 135.966 513.037 139.345 Q516.093 142.702 516.093 148.489 M511.834 147.239 Q511.787 143.744 509.866 141.66 Q507.968 139.577 504.82 139.577 Q501.255 139.577 499.102 141.591 Q496.973 143.605 496.648 147.262 L511.834 147.239 Z" fill="#000000" fill-rule="nonzero" fill-opacity="1" /><path clip-path="url(#clip740)" d="M544.634 146.869 L544.634 162.517 L540.375 162.517 L540.375 147.007 Q540.375 143.327 538.94 141.498 Q537.505 139.67 534.634 139.67 Q531.185 139.67 529.195 141.869 Q527.204 144.068 527.204 147.864 L527.204 162.517 L522.921 162.517 L522.921 136.591 L527.204 136.591 L527.204 140.619 Q528.732 138.281 530.792 137.123 Q532.875 135.966 535.583 135.966 Q540.051 135.966 542.343 138.744 Q544.634 141.498 544.634 146.869 Z" fill="#000000" fill-rule="nonzero" fill-opacity="1" /><path clip-path="url(#clip740)" d="M557.343 129.23 L557.343 136.591 L566.116 136.591 L566.116 139.901 L557.343 139.901 L557.343 153.975 Q557.343 157.146 558.199 158.049 Q559.079 158.952 561.741 158.952 L566.116 158.952 L566.116 162.517 L561.741 162.517 Q556.81 162.517 554.935 160.688 Q553.06 158.836 553.06 153.975 L553.06 139.901 L549.935 139.901 L549.935 136.591 L553.06 136.591 L553.06 129.23 L557.343 129.23 Z" fill="#000000" fill-rule="nonzero" fill-opacity="1" /><path clip-path="url(#clip740)" d="M593.893 148.489 L593.893 150.572 L574.31 150.572 Q574.588 154.97 576.949 157.285 Q579.333 159.577 583.569 159.577 Q586.023 159.577 588.315 158.975 Q590.629 158.373 592.898 157.169 L592.898 161.197 Q590.606 162.169 588.199 162.679 Q585.791 163.188 583.315 163.188 Q577.111 163.188 573.477 159.577 Q569.866 155.966 569.866 149.808 Q569.866 143.443 573.292 139.716 Q576.741 135.966 582.574 135.966 Q587.805 135.966 590.838 139.345 Q593.893 142.702 593.893 148.489 M589.634 147.239 Q589.588 143.744 587.666 141.66 Q585.768 139.577 582.62 139.577 Q579.055 139.577 576.903 141.591 Q574.773 143.605 574.449 147.262 L589.634 147.239 Z" fill="#000000" fill-rule="nonzero" fill-opacity="1" /><path clip-path="url(#clip740)" d="M615.907 140.572 Q615.189 140.156 614.333 139.97 Q613.5 139.762 612.481 139.762 Q608.87 139.762 606.926 142.123 Q605.004 144.461 605.004 148.859 L605.004 162.517 L600.722 162.517 L600.722 136.591 L605.004 136.591 L605.004 140.619 Q606.347 138.257 608.5 137.123 Q610.652 135.966 613.731 135.966 Q614.171 135.966 614.703 136.035 Q615.236 136.082 615.884 136.197 L615.907 140.572 Z" fill="#000000" fill-rule="nonzero" fill-opacity="1" /><path clip-path="url(#clip740)" d="M620.375 126.498 L624.634 126.498 L624.634 162.517 L620.375 162.517 L620.375 126.498 Z" fill="#000000" fill-rule="nonzero" fill-opacity="1" /><path clip-path="url(#clip740)" d="M633.546 136.591 L637.805 136.591 L637.805 162.517 L633.546 162.517 L633.546 136.591 M633.546 126.498 L637.805 126.498 L637.805 131.892 L633.546 131.892 L633.546 126.498 Z" fill="#000000" fill-rule="nonzero" fill-opacity="1" /><path clip-path="url(#clip740)" d="M668.268 146.869 L668.268 162.517 L664.009 162.517 L664.009 147.007 Q664.009 143.327 662.573 141.498 Q661.138 139.67 658.268 139.67 Q654.819 139.67 652.828 141.869 Q650.837 144.068 650.837 147.864 L650.837 162.517 L646.555 162.517 L646.555 136.591 L650.837 136.591 L650.837 140.619 Q652.365 138.281 654.425 137.123 Q656.509 135.966 659.217 135.966 Q663.685 135.966 665.976 138.744 Q668.268 141.498 668.268 146.869 Z" fill="#000000" fill-rule="nonzero" fill-opacity="1" /><path clip-path="url(#clip740)" d="M698.939 148.489 L698.939 150.572 L679.356 150.572 Q679.634 154.97 681.995 157.285 Q684.379 159.577 688.615 159.577 Q691.069 159.577 693.36 158.975 Q695.675 158.373 697.944 157.169 L697.944 161.197 Q695.652 162.169 693.245 162.679 Q690.837 163.188 688.36 163.188 Q682.157 163.188 678.522 159.577 Q674.911 155.966 674.911 149.808 Q674.911 143.443 678.337 139.716 Q681.786 135.966 687.62 135.966 Q692.851 135.966 695.883 139.345 Q698.939 142.702 698.939 148.489 M694.68 147.239 Q694.633 143.744 692.712 141.66 Q690.814 139.577 687.666 139.577 Q684.101 139.577 681.948 141.591 Q679.819 143.605 679.495 147.262 L694.68 147.239 Z" fill="#000000" fill-rule="nonzero" fill-opacity="1" /><polyline clip-path="url(#clip740)" style="stroke:#e26f46; stroke-linecap:round; stroke-linejoin:round; stroke-width:12; stroke-opacity:1; fill:none" points="291.209,197.077 435.038,197.077 "/>
<path clip-path="url(#clip740)" d="M475.399 198.153 Q476.903 198.662 478.315 200.329 Q479.75 201.996 481.186 204.912 L485.931 214.357 L480.908 214.357 L476.487 205.491 Q474.774 202.019 473.153 200.884 Q471.556 199.75 468.778 199.75 L463.686 199.75 L463.686 214.357 L459.01 214.357 L459.01 179.797 L469.565 179.797 Q475.491 179.797 478.408 182.273 Q481.324 184.75 481.324 189.75 Q481.324 193.014 479.797 195.167 Q478.292 197.32 475.399 198.153 M463.686 183.639 L463.686 195.908 L469.565 195.908 Q472.945 195.908 474.658 194.357 Q476.394 192.783 476.394 189.75 Q476.394 186.718 474.658 185.19 Q472.945 183.639 469.565 183.639 L463.686 183.639 Z" fill="#000000" fill-rule="nonzero" fill-opacity="1" /><path clip-path="url(#clip740)" d="M502.505 201.324 Q497.343 201.324 495.352 202.505 Q493.361 203.685 493.361 206.533 Q493.361 208.801 494.843 210.144 Q496.348 211.463 498.917 211.463 Q502.459 211.463 504.588 208.963 Q506.741 206.44 506.741 202.273 L506.741 201.324 L502.505 201.324 M511 199.565 L511 214.357 L506.741 214.357 L506.741 210.421 Q505.283 212.783 503.107 213.917 Q500.931 215.028 497.783 215.028 Q493.801 215.028 491.44 212.806 Q489.102 210.56 489.102 206.81 Q489.102 202.435 492.019 200.213 Q494.959 197.991 500.769 197.991 L506.741 197.991 L506.741 197.574 Q506.741 194.635 504.797 193.037 Q502.875 191.417 499.38 191.417 Q497.158 191.417 495.051 191.949 Q492.945 192.482 491 193.547 L491 189.611 Q493.338 188.709 495.537 188.269 Q497.736 187.806 499.82 187.806 Q505.445 187.806 508.222 190.722 Q511 193.639 511 199.565 Z" fill="#000000" fill-rule="nonzero" fill-opacity="1" /><path clip-path="url(#clip740)" d="M538.431 189.426 L538.431 193.408 Q536.625 192.412 534.796 191.926 Q532.991 191.417 531.139 191.417 Q526.995 191.417 524.704 194.056 Q522.412 196.672 522.412 201.417 Q522.412 206.162 524.704 208.801 Q526.995 211.417 531.139 211.417 Q532.991 211.417 534.796 210.931 Q536.625 210.421 538.431 209.426 L538.431 213.361 Q536.648 214.195 534.727 214.611 Q532.829 215.028 530.676 215.028 Q524.82 215.028 521.371 211.347 Q517.921 207.667 517.921 201.417 Q517.921 195.074 521.394 191.44 Q524.889 187.806 530.954 187.806 Q532.921 187.806 534.796 188.223 Q536.671 188.616 538.431 189.426 Z" fill="#000000" fill-rule="nonzero" fill-opacity="1" /><path clip-path="url(#clip740)" d="M568.014 200.329 L568.014 202.412 L548.431 202.412 Q548.708 206.81 551.069 209.125 Q553.454 211.417 557.69 211.417 Q560.143 211.417 562.435 210.815 Q564.75 210.213 567.018 209.009 L567.018 213.037 Q564.727 214.009 562.319 214.519 Q559.912 215.028 557.435 215.028 Q551.231 215.028 547.597 211.417 Q543.986 207.806 543.986 201.648 Q543.986 195.283 547.412 191.556 Q550.861 187.806 556.694 187.806 Q561.926 187.806 564.958 191.185 Q568.014 194.542 568.014 200.329 M563.755 199.079 Q563.708 195.584 561.787 193.5 Q559.889 191.417 556.741 191.417 Q553.176 191.417 551.023 193.431 Q548.894 195.445 548.569 199.102 L563.755 199.079 Z" fill="#000000" fill-rule="nonzero" fill-opacity="1" /><path clip-path="url(#clip740)" d="M593.662 189.426 L593.662 193.408 Q591.856 192.412 590.028 191.926 Q588.222 191.417 586.37 191.417 Q582.227 191.417 579.935 194.056 Q577.643 196.672 577.643 201.417 Q577.643 206.162 579.935 208.801 Q582.227 211.417 586.37 211.417 Q588.222 211.417 590.028 210.931 Q591.856 210.421 593.662 209.426 L593.662 213.361 Q591.879 214.195 589.958 214.611 Q588.06 215.028 585.907 215.028 Q580.051 215.028 576.602 211.347 Q573.153 207.667 573.153 201.417 Q573.153 195.074 576.625 191.44 Q580.12 187.806 586.185 187.806 Q588.153 187.806 590.028 188.223 Q591.903 188.616 593.662 189.426 Z" fill="#000000" fill-rule="nonzero" fill-opacity="1" /><path clip-path="url(#clip740)" d="M612.852 201.324 Q607.69 201.324 605.699 202.505 Q603.708 203.685 603.708 206.533 Q603.708 208.801 605.19 210.144 Q606.694 211.463 609.264 211.463 Q612.805 211.463 614.935 208.963 Q617.088 206.44 617.088 202.273 L617.088 201.324 L612.852 201.324 M621.347 199.565 L621.347 214.357 L617.088 214.357 L617.088 210.421 Q615.629 212.783 613.453 213.917 Q611.277 215.028 608.129 215.028 Q604.148 215.028 601.787 212.806 Q599.449 210.56 599.449 206.81 Q599.449 202.435 602.365 200.213 Q605.305 197.991 611.115 197.991 L617.088 197.991 L617.088 197.574 Q617.088 194.635 615.143 193.037 Q613.222 191.417 609.727 191.417 Q607.504 191.417 605.398 191.949 Q603.291 192.482 601.347 193.547 L601.347 189.611 Q603.685 188.709 605.884 188.269 Q608.083 187.806 610.166 187.806 Q615.791 187.806 618.569 190.722 Q621.347 193.639 621.347 199.565 Z" fill="#000000" fill-rule="nonzero" fill-opacity="1" /><path clip-path="url(#clip740)" d="M645.143 192.412 Q644.425 191.996 643.569 191.81 Q642.736 191.602 641.717 191.602 Q638.106 191.602 636.162 193.963 Q634.24 196.301 634.24 200.699 L634.24 214.357 L629.958 214.357 L629.958 188.431 L634.24 188.431 L634.24 192.459 Q635.583 190.097 637.736 188.963 Q639.888 187.806 642.967 187.806 Q643.407 187.806 643.939 187.875 Q644.472 187.922 645.12 188.037 L645.143 192.412 Z" fill="#000000" fill-rule="nonzero" fill-opacity="1" /><path clip-path="url(#clip740)" d="M653.638 179.797 L653.638 192.644 L649.703 192.644 L649.703 179.797 L653.638 179.797 Z" fill="#000000" fill-rule="nonzero" fill-opacity="1" /><path clip-path="url(#clip740)" d="M679.171 189.195 L679.171 193.222 Q677.365 192.297 675.421 191.834 Q673.476 191.371 671.393 191.371 Q668.222 191.371 666.624 192.343 Q665.05 193.315 665.05 195.259 Q665.05 196.741 666.185 197.597 Q667.319 198.431 670.745 199.195 L672.203 199.519 Q676.74 200.491 678.638 202.273 Q680.559 204.033 680.559 207.204 Q680.559 210.815 677.689 212.921 Q674.842 215.028 669.842 215.028 Q667.759 215.028 665.49 214.611 Q663.245 214.218 660.745 213.408 L660.745 209.009 Q663.106 210.236 665.398 210.861 Q667.689 211.463 669.935 211.463 Q672.944 211.463 674.564 210.445 Q676.185 209.403 676.185 207.528 Q676.185 205.792 675.004 204.866 Q673.847 203.94 669.888 203.084 L668.407 202.736 Q664.448 201.903 662.689 200.19 Q660.93 198.454 660.93 195.445 Q660.93 191.787 663.523 189.797 Q666.115 187.806 670.884 187.806 Q673.245 187.806 675.328 188.153 Q677.411 188.5 679.171 189.195 Z" fill="#000000" fill-rule="nonzero" fill-opacity="1" /><path clip-path="url(#clip740)" d="M707.272 183.639 L707.272 196.625 L713.152 196.625 Q716.416 196.625 718.198 194.935 Q719.981 193.246 719.981 190.121 Q719.981 187.019 718.198 185.329 Q716.416 183.639 713.152 183.639 L707.272 183.639 M702.596 179.797 L713.152 179.797 Q718.962 179.797 721.925 182.435 Q724.911 185.051 724.911 190.121 Q724.911 195.236 721.925 197.852 Q718.962 200.468 713.152 200.468 L707.272 200.468 L707.272 214.357 L702.596 214.357 L702.596 179.797 Z" fill="#000000" fill-rule="nonzero" fill-opacity="1" /><path clip-path="url(#clip740)" d="M740.652 201.324 Q735.49 201.324 733.499 202.505 Q731.508 203.685 731.508 206.533 Q731.508 208.801 732.99 210.144 Q734.494 211.463 737.064 211.463 Q740.605 211.463 742.735 208.963 Q744.888 206.44 744.888 202.273 L744.888 201.324 L740.652 201.324 M749.147 199.565 L749.147 214.357 L744.888 214.357 L744.888 210.421 Q743.43 212.783 741.254 213.917 Q739.078 215.028 735.93 215.028 Q731.948 215.028 729.587 212.806 Q727.249 210.56 727.249 206.81 Q727.249 202.435 730.166 200.213 Q733.106 197.991 738.916 197.991 L744.888 197.991 L744.888 197.574 Q744.888 194.635 742.943 193.037 Q741.022 191.417 737.527 191.417 Q735.305 191.417 733.198 191.949 Q731.092 192.482 729.147 193.547 L729.147 189.611 Q731.485 188.709 733.684 188.269 Q735.883 187.806 737.967 187.806 Q743.592 187.806 746.369 190.722 Q749.147 193.639 749.147 199.565 Z" fill="#000000" fill-rule="nonzero" fill-opacity="1" /><path clip-path="url(#clip740)" d="M762.133 181.07 L762.133 188.431 L770.906 188.431 L770.906 191.741 L762.133 191.741 L762.133 205.815 Q762.133 208.986 762.99 209.889 Q763.869 210.792 766.531 210.792 L770.906 210.792 L770.906 214.357 L766.531 214.357 Q761.601 214.357 759.726 212.528 Q757.851 210.676 757.851 205.815 L757.851 191.741 L754.726 191.741 L754.726 188.431 L757.851 188.431 L757.851 181.07 L762.133 181.07 Z" fill="#000000" fill-rule="nonzero" fill-opacity="1" /><path clip-path="url(#clip740)" d="M798.059 198.709 L798.059 214.357 L793.8 214.357 L793.8 198.847 Q793.8 195.167 792.364 193.338 Q790.929 191.51 788.059 191.51 Q784.61 191.51 782.619 193.709 Q780.628 195.908 780.628 199.704 L780.628 214.357 L776.346 214.357 L776.346 178.338 L780.628 178.338 L780.628 192.459 Q782.156 190.121 784.216 188.963 Q786.3 187.806 789.008 187.806 Q793.476 187.806 795.767 190.584 Q798.059 193.338 798.059 198.709 Z" fill="#000000" fill-rule="nonzero" fill-opacity="1" /><polyline clip-path="url(#clip740)" style="stroke:#808080; stroke-linecap:round; stroke-linejoin:round; stroke-width:4; stroke-opacity:1; fill:none" points="291.209,248.917 435.038,248.917 "/>
<path clip-path="url(#clip740)" d="M459.01 230.178 L463.269 230.178 L463.269 266.197 L459.01 266.197 L459.01 230.178 Z" fill="#000000" fill-rule="nonzero" fill-opacity="1" /><path clip-path="url(#clip740)" d="M472.181 240.271 L476.44 240.271 L476.44 266.197 L472.181 266.197 L472.181 240.271 M472.181 230.178 L476.44 230.178 L476.44 235.572 L472.181 235.572 L472.181 230.178 Z" fill="#000000" fill-rule="nonzero" fill-opacity="1" /><path clip-path="url(#clip740)" d="M505.537 245.248 Q507.134 242.377 509.357 241.012 Q511.579 239.646 514.588 239.646 Q518.639 239.646 520.838 242.493 Q523.037 245.317 523.037 250.549 L523.037 266.197 L518.755 266.197 L518.755 250.687 Q518.755 246.961 517.435 245.155 Q516.116 243.35 513.408 243.35 Q510.097 243.35 508.176 245.549 Q506.255 247.748 506.255 251.544 L506.255 266.197 L501.972 266.197 L501.972 250.687 Q501.972 246.937 500.653 245.155 Q499.334 243.35 496.579 243.35 Q493.315 243.35 491.394 245.572 Q489.473 247.771 489.473 251.544 L489.473 266.197 L485.19 266.197 L485.19 240.271 L489.473 240.271 L489.473 244.299 Q490.931 241.914 492.968 240.78 Q495.005 239.646 497.806 239.646 Q500.63 239.646 502.597 241.081 Q504.588 242.516 505.537 245.248 Z" fill="#000000" fill-rule="nonzero" fill-opacity="1" /><path clip-path="url(#clip740)" d="M531.533 240.271 L535.792 240.271 L535.792 266.197 L531.533 266.197 L531.533 240.271 M531.533 230.178 L535.792 230.178 L535.792 235.572 L531.533 235.572 L531.533 230.178 Z" fill="#000000" fill-rule="nonzero" fill-opacity="1" /><path clip-path="url(#clip740)" d="M548.917 232.91 L548.917 240.271 L557.69 240.271 L557.69 243.581 L548.917 243.581 L548.917 257.655 Q548.917 260.826 549.773 261.729 Q550.653 262.632 553.315 262.632 L557.69 262.632 L557.69 266.197 L553.315 266.197 Q548.384 266.197 546.509 264.368 Q544.634 262.516 544.634 257.655 L544.634 243.581 L541.509 243.581 L541.509 240.271 L544.634 240.271 L544.634 232.91 L548.917 232.91 Z" fill="#000000" fill-rule="nonzero" fill-opacity="1" /><path clip-path="url(#clip740)" d="M572.551 249.553 L572.551 256.775 L580.676 256.775 L580.676 258.974 L572.551 258.974 L572.551 266.197 L570.12 266.197 L570.12 258.974 L561.995 258.974 L561.995 256.775 L570.12 256.775 L570.12 249.553 L572.551 249.553 Z" fill="#000000" fill-rule="nonzero" fill-opacity="1" /><polyline clip-path="url(#clip740)" style="stroke:#808080; stroke-linecap:round; stroke-linejoin:round; stroke-width:4; stroke-opacity:1; fill:none" points="291.209,300.757 435.038,300.757 "/>
<path clip-path="url(#clip740)" d="M459.01 282.018 L463.269 282.018 L463.269 318.037 L459.01 318.037 L459.01 282.018 Z" fill="#000000" fill-rule="nonzero" fill-opacity="1" /><path clip-path="url(#clip740)" d="M472.181 292.111 L476.44 292.111 L476.44 318.037 L472.181 318.037 L472.181 292.111 M472.181 282.018 L476.44 282.018 L476.44 287.412 L472.181 287.412 L472.181 282.018 Z" fill="#000000" fill-rule="nonzero" fill-opacity="1" /><path clip-path="url(#clip740)" d="M505.537 297.088 Q507.134 294.217 509.357 292.852 Q511.579 291.486 514.588 291.486 Q518.639 291.486 520.838 294.333 Q523.037 297.157 523.037 302.389 L523.037 318.037 L518.755 318.037 L518.755 302.527 Q518.755 298.801 517.435 296.995 Q516.116 295.19 513.408 295.19 Q510.097 295.19 508.176 297.389 Q506.255 299.588 506.255 303.384 L506.255 318.037 L501.972 318.037 L501.972 302.527 Q501.972 298.777 500.653 296.995 Q499.334 295.19 496.579 295.19 Q493.315 295.19 491.394 297.412 Q489.473 299.611 489.473 303.384 L489.473 318.037 L485.19 318.037 L485.19 292.111 L489.473 292.111 L489.473 296.139 Q490.931 293.754 492.968 292.62 Q495.005 291.486 497.806 291.486 Q500.63 291.486 502.597 292.921 Q504.588 294.356 505.537 297.088 Z" fill="#000000" fill-rule="nonzero" fill-opacity="1" /><path clip-path="url(#clip740)" d="M531.533 292.111 L535.792 292.111 L535.792 318.037 L531.533 318.037 L531.533 292.111 M531.533 282.018 L535.792 282.018 L535.792 287.412 L531.533 287.412 L531.533 282.018 Z" fill="#000000" fill-rule="nonzero" fill-opacity="1" /><path clip-path="url(#clip740)" d="M548.917 284.75 L548.917 292.111 L557.69 292.111 L557.69 295.421 L548.917 295.421 L548.917 309.495 Q548.917 312.666 549.773 313.569 Q550.653 314.472 553.315 314.472 L557.69 314.472 L557.69 318.037 L553.315 318.037 Q548.384 318.037 546.509 316.208 Q544.634 314.356 544.634 309.495 L544.634 295.421 L541.509 295.421 L541.509 292.111 L544.634 292.111 L544.634 284.75 L548.917 284.75 Z" fill="#000000" fill-rule="nonzero" fill-opacity="1" /><path clip-path="url(#clip740)" d="M561.995 308.615 L580.676 308.615 L580.676 310.814 L561.995 310.814 L561.995 308.615 Z" fill="#000000" fill-rule="nonzero" fill-opacity="1" /></svg>
